<svg width="122" height="94" viewBox="0 0 122 94" fill="none" xmlns="http://www.w3.org/2000/svg">
<g clip-path="url(#clip0_227_2)">
<path d="M97.7674 21.4603L97.5264 21.5166L97.4162 21.0453L97.7674 21.4603Z" fill="#333333"/>
<path d="M96.9545 20.159L97.1405 19.867L97.4709 21.281C96.8578 21.9214 97.3265 19.575 96.9545 20.159Z" fill="#333333"/>
<path d="M96.7146 20.2154C96.2875 20.5637 96.3633 19.8004 96.5494 19.5084C96.4184 20.0361 97.0315 19.3957 96.7146 20.2154Z" fill="#333333"/>
<path d="M70.0396 13.7731L69.9295 13.3018C70.9281 14.3111 72.2093 13.2661 73.3388 13.7478L73.2838 13.5122C76.1008 13.5995 78.656 14.7422 81.3421 15.3572L81.287 15.1216C81.3421 15.3572 81.3971 15.5929 81.6933 15.7722L81.6382 15.5366C82.4924 14.8399 83.36 16.3769 83.732 15.7929C83.7871 16.0286 83.8422 16.2643 83.6561 16.5563C85.805 17.0483 87.9539 17.5403 90.0269 18.7957C90.268 18.7393 90.2129 18.5037 90.3989 18.2117C91.8588 20.1074 94.0836 19.836 95.9363 20.1487C96.0465 20.6201 95.7503 20.4407 95.6194 20.9684C94.9512 21.3731 94.8619 19.9027 93.9527 20.3637L94.0077 20.5994C93.5256 20.712 94.0285 19.6004 93.6014 19.9487C93.4154 20.2407 93.4705 20.4764 93.4705 20.4764C92.6371 20.174 91.6178 20.1637 91.1564 19.2773C90.8395 20.097 90.323 18.975 89.765 19.851C89.6549 19.3797 89.4138 19.436 89.3037 18.9647C86.2456 18.9336 83.3943 17.6116 80.226 17.1092C79.0622 15.3929 76.9268 17.1345 75.2601 16.5298C75.2601 16.5298 75.2601 16.5298 75.3151 16.7655C74.7229 16.4068 73.8895 16.1045 73.1663 16.2735L72.76 15.6228C70.6454 16.3655 68.6066 16.3448 66.5679 16.3241C64.5842 16.5391 62.5454 16.5184 60.3757 17.0253C58.206 17.5323 56.0914 18.275 53.9217 18.7819C51.8071 19.5246 49.7684 19.5039 47.2475 19.5959C47.3025 19.8315 47.3025 19.8315 47.3025 19.8315C46.0971 20.1132 45.0019 20.8662 43.7965 21.1478L43.8516 21.3835C42.35 21.4858 40.7176 22.1158 39.3813 22.9251C38.0449 23.7344 36.7086 24.5438 35.2621 24.8817C32.5136 27.2637 29.5791 29.9377 26.6996 32.8473L26.9957 33.0267C25.7145 34.0716 25.2666 35.419 24.5776 36.8226C24.1297 38.17 23.7369 39.753 22.7518 40.9773C22.2072 44.0869 18.6253 46.1666 18.673 49.6349C19.4647 51.9352 15.8278 53.7792 17.0466 55.7312C19.1331 59.2202 17.3831 62.6116 15.4471 66.2949C16.2731 69.8299 14.041 73.3339 15.8313 76.6435C14.9563 78.3392 17.3805 80.0096 17.2838 81.7719L16.8017 81.8846C17.9312 82.3662 15.3895 83.4572 16.9461 83.5906C18.2616 83.7802 15.3687 84.4562 16.4431 84.7022L15.961 84.8149C16.016 85.0506 16.4431 84.7022 16.7393 84.8816C16.7393 84.8816 16.016 85.0506 16.3122 85.2299C18.0548 85.0712 16.0503 86.2852 18.034 86.0702C17.9789 85.8346 18.8673 86.3726 19.2394 85.7886C19.2944 86.0243 19.4046 86.4956 18.4402 86.7209C17.4759 86.9462 16.8078 87.3509 15.9744 87.0486L16.6976 86.8796C16.1604 86.7566 16.4015 86.7002 15.9193 86.8129C15.8092 86.3416 14.7898 86.3312 14.4386 85.9162C15.1068 85.5115 14.5145 85.1529 14.4594 84.9172L14.2184 84.9735C13.4401 84.9069 15.5547 84.1642 14.3493 84.4459C14.5561 83.1549 14.2808 81.9765 14.2465 80.7419C14.7287 80.6292 14.0263 79.7992 15.1007 80.0452C14.0263 79.7992 13.5649 78.9129 13.6959 78.3852L13.4548 78.4415C12.0842 78.0162 14.7911 77.6322 12.8833 77.0839C14.0887 76.8022 12.3669 75.9618 13.8134 75.6239C13.5172 75.4445 13.2761 75.5009 13.2761 75.5009C13.2419 74.2662 12.7255 73.1442 12.7463 72.1452C13.8415 71.3922 12.2507 70.0242 13.8832 69.3942C13.4769 68.7435 13.0155 67.8572 13.5736 66.9812L13.3325 67.0375C13.3533 66.0385 13.6152 64.9832 14.4694 64.2865C13.1538 64.0969 13.3399 63.8049 12.9336 63.1542C13.5467 62.5139 13.5124 61.2792 14.3115 60.3469C13.7743 60.2239 14.6285 59.5272 13.8502 59.4605C16.0615 56.9555 16.0688 53.7229 15.353 50.6592C16.0762 50.4902 17.2816 50.2086 18.0048 50.0396C18.0048 50.0396 17.7087 49.8602 17.7637 50.0959C18.1358 49.5119 17.2473 48.9739 17.6194 48.3899C17.3783 48.4462 17.3783 48.4462 17.3783 48.4462C17.8054 48.0979 16.8619 47.3242 17.7711 46.8632L17.475 46.6839L17.716 46.6276C17.4199 46.4482 16.8827 46.3252 16.9377 46.5609C18.1713 42.0476 21.3677 38.3183 23.7308 34.2866L23.4897 34.343L24.399 33.882L24.1028 33.7026C24.3096 32.4116 25.701 31.838 26.2591 30.962C26.2591 30.962 25.7218 30.839 25.6668 30.6033C26.9272 30.5573 25.5224 28.8973 27.2442 29.7377C27.2442 29.7377 26.893 29.3227 26.6519 29.379C27.5061 28.6823 28.5462 27.6937 29.4004 26.997C30.2546 26.3004 30.9986 25.1324 31.8528 24.4357C34.3737 24.3437 35.0835 21.9411 37.6044 21.8491L37.5493 21.6134C40.2012 20.9938 41.9854 18.8371 44.5822 17.9818C45.4914 17.5208 46.5108 17.5312 47.4751 17.3059L47.365 16.8345C49.5689 17.5622 50.8918 14.5192 53.1508 15.4826L52.7996 15.0676C53.2059 15.7183 53.9499 14.5503 54.0392 16.0206L54.1702 15.4929C55.8161 17.0966 56.4157 14.2226 58.1926 15.2987L58.1375 15.063C58.6748 15.186 59.212 15.309 59.398 15.017L59.3429 14.7813C60.514 13.265 62.1049 14.633 63.6064 14.5307L63.4412 13.8237C64.0886 14.4181 65.48 13.8444 66.3133 14.1467L66.2583 13.9111L66.6095 14.3261L66.7404 13.7984C67.8907 13.2811 69.0202 13.7628 70.0396 13.7731Z" fill="#333333"/>
<path d="M95.5932 7.80199L95.6483 8.03766L95.2971 7.62266L95.5932 7.80199Z" fill="#333333"/>
<path d="M94.7054 7.26411L94.4092 7.08477C94.7054 7.26411 95.2976 7.62278 95.5938 7.80212C96.2411 8.39646 94.1131 6.90544 94.7054 7.26411Z" fill="#333333"/>
<path d="M94.7054 7.26403C95.0016 7.44336 94.4093 7.08469 94.1131 6.90535C94.7054 7.26403 94.1131 6.90535 94.7054 7.26403Z" fill="#333333"/>
<path d="M92.8589 12.4177L92.3767 12.5303C93.2309 11.8337 92.0255 12.1153 92.3975 11.5313L92.1564 11.5877C91.7502 10.937 92.3082 10.061 92.6252 9.24132L92.3841 9.29765C92.6251 9.24132 92.8662 9.18499 92.8662 9.18499L92.6252 9.24132C91.6058 9.23098 93.0522 8.89299 92.515 8.76999C92.515 8.76999 92.9972 8.65733 93.2383 8.601C93.3692 8.07333 93.5001 7.54566 94.2784 7.61234C94.2784 7.61234 93.9823 7.43301 93.7412 7.48934C94.5195 7.55601 94.7606 7.49968 94.7606 7.49968C94.7606 7.49968 94.7055 7.26401 94.6505 7.02834C94.9466 7.20768 94.9466 7.20768 95.2427 7.38702C95.5389 7.56635 94.4094 7.08467 95.0017 7.44335L95.2978 7.62268C95.5939 7.80202 94.4644 7.32034 94.7606 7.49968C95.0567 7.67901 95.0567 7.67902 95.2978 7.62268C95.0567 7.67902 95.2978 7.62268 94.5195 7.55601C95.3529 7.85835 94.5195 7.55601 95.3529 7.85835C95.1118 7.91468 95.1118 7.91468 94.5746 7.79168C94.9258 8.20668 94.2576 8.61134 94.4228 9.31834C93.0314 9.892 94.8291 9.96901 94.402 10.3173C94.402 10.3173 94.402 10.3173 94.6431 10.261C94.4571 10.553 94.2711 10.845 94.5121 10.7887L93.844 11.1933C95.4556 11.5624 94.9527 12.674 96.0822 13.1557C96.4334 13.5707 97.2117 13.6374 97.3218 14.1087C97.618 14.288 97.8933 15.4664 97.3353 16.3424C97.5763 16.286 97.5764 16.286 97.5764 16.286C97.4454 16.8137 98.2788 17.1161 98.0928 17.4081L98.3338 17.3517C97.4246 17.8127 97.7758 18.2277 97.8309 18.4634C97.941 18.9347 97.9961 19.1704 97.8101 19.4624C98.1613 19.8774 98.2163 20.1131 98.7536 20.2361L99.0497 20.4154C98.7536 20.2361 98.2714 20.3487 97.9753 20.1694C97.438 20.0464 97.197 20.1027 97.011 20.3947C96.7699 20.451 96.8249 20.6867 96.3428 20.7994C96.3979 21.035 96.1568 21.0914 95.6746 21.204C94.304 20.7787 93.6567 20.1843 93.3397 21.004C93.6701 22.418 91.5629 19.928 91.9483 21.5777C92.2579 23.9907 91.0183 23.0376 89.1656 22.725C89.1998 23.9596 86.9408 22.9963 87.6224 24.8253C86.4929 24.3436 88.1939 26.1829 87.4707 26.3519L87.1745 26.1726C87.8769 27.0026 85.7489 25.5116 86.9885 26.4646C87.6359 27.0589 85.2116 25.3886 86.1001 25.9266L85.8039 25.7473C85.5629 25.8036 86.1551 26.1623 86.1551 26.1623C86.1551 26.1623 85.5629 25.8036 85.6179 26.0393C87.0986 26.9359 85.1358 26.1519 86.9126 27.2279C86.9126 27.2279 87.56 27.8223 87.8561 28.0016C87.9112 28.2373 87.9112 28.2373 87.0228 27.6993C86.3754 27.1049 85.5421 26.8026 85.1908 26.3876L85.7831 26.7463C85.1908 26.3876 85.487 26.5669 85.1358 26.1519C85.0807 25.9162 84.4333 25.3219 84.1372 25.1426C84.7295 25.5012 84.4334 25.3219 84.3783 25.0862L84.0821 24.9069C83.4898 24.5482 85.2667 25.6242 84.3232 24.8506C84.8054 24.7379 84.9914 24.4459 85.1774 24.1539C85.4735 24.3333 85.3634 23.8619 86.0108 24.4563C85.3083 23.6262 85.2533 23.3906 85.2533 23.3906L84.9571 23.2112C83.9586 22.2019 86.1417 23.9286 84.847 22.7399C85.7905 23.5136 84.7369 22.2686 85.9765 23.2216C85.6804 23.0423 85.6253 22.8066 85.3291 22.6272C85.5151 22.3353 85.405 21.8639 85.591 21.5719C86.4795 22.1099 85.6669 20.8086 86.9065 21.7616C86.8515 21.5259 86.6863 20.8189 87.2786 21.1776L87.2235 20.9419C87.4646 20.8856 87.6506 20.5936 88.5941 21.3673C87.8366 20.3016 88.1327 20.4809 87.7815 20.0659C88.3738 20.4246 88.5598 20.1326 89.1521 20.4913C88.7458 19.8406 89.4483 20.6706 88.9869 19.7843C90.7638 20.8603 91.0257 19.805 91.1774 18.2783C91.5286 18.6933 91.99 19.5797 92.3962 20.2303L92.3412 19.9947C92.6373 20.174 92.176 19.2877 92.4171 19.2313C92.362 18.9957 92.362 18.9957 92.362 18.9957C92.7132 19.4107 92.1968 18.2887 92.6031 18.9393L92.548 18.7037L92.8441 18.883C92.7891 18.6473 92.4379 18.2323 92.4379 18.2323C92.6239 17.9403 92.6789 18.176 92.9751 18.3553C93.5123 18.4783 94.4007 19.0163 94.5867 18.7243L94.2906 18.545L95.124 18.8474C94.8278 18.668 94.8278 18.668 94.5867 18.7243C93.9945 18.3657 95.4201 19.0267 95.365 18.791C95.0689 18.6117 94.5317 18.4887 94.2355 18.3093C95.6612 18.9704 92.5137 17.469 95.6061 18.7347C95.365 18.791 94.7728 18.4324 94.4766 18.253C95.0138 18.376 95.31 18.5554 95.6061 18.7347C95.6061 18.7347 95.6061 18.7347 95.365 18.791L95.179 19.083C96.3085 19.5647 96.2535 19.329 96.2535 19.329C96.1984 19.0934 95.9573 19.1497 96.7356 19.2164L96.3844 18.8014C97.1627 18.868 96.8115 18.453 96.5154 18.2737C96.2192 18.0944 95.868 17.6794 95.8129 17.4437C95.5168 17.2644 95.999 17.1517 95.7028 16.9724L95.2207 17.085C95.8888 16.6804 95.3516 16.5574 95.1105 16.6137C94.6284 16.7263 94.3322 16.547 94.9453 15.9067L94.5182 16.255C95.1864 15.8504 93.981 16.132 95.3724 15.5584L94.8903 15.671C96.3575 14.334 93.8709 15.6607 94.67 14.7283L94.484 15.0203C94.67 14.7283 94.9111 14.672 94.4289 14.7847L94.1878 14.841C92.7414 15.179 94.0226 14.134 93.7265 13.9547L93.2994 14.303C93.9676 13.8983 93.1893 13.8317 93.3753 13.5397L93.1342 13.596C92.5419 13.2373 92.9139 12.6533 92.8589 12.4177Z" fill="#333333"/>
</g>
<defs>
<clipPath id="clip0_227_2">
<rect width="108.837" height="70.3963" fill="white" transform="matrix(0.97377 -0.227534 -0.227534 -0.97377 16.0186 93.7639)"/>
</clipPath>
</defs>
</svg>
