<svg width="122" height="94" viewBox="0 0 122 94" fill="none" xmlns="http://www.w3.org/2000/svg">
<g clip-path="url(#clip0_227_2)">
<path d="M97.7674 72.7538L97.5264 72.6975L97.4162 73.1688L97.7674 72.7538Z" fill="#333333"/>
<path d="M96.9545 74.0551L97.1405 74.3471L97.4709 72.9331C96.8578 72.2927 97.3265 74.6391 96.9545 74.0551Z" fill="#333333"/>
<path d="M96.7146 73.9987C96.2875 73.6504 96.3633 74.4137 96.5494 74.7057C96.4184 74.178 97.0315 74.8184 96.7146 73.9987Z" fill="#333333"/>
<path d="M70.0396 80.441L69.9295 80.9123C70.9281 79.903 72.2093 80.948 73.3388 80.4663L73.2838 80.702C76.1008 80.6146 78.656 79.4719 81.3421 78.8569L81.287 79.0925C81.3421 78.8569 81.3971 78.6212 81.6933 78.4419L81.6382 78.6775C82.4924 79.3742 83.36 77.8372 83.732 78.4212C83.7871 78.1855 83.8422 77.9498 83.6561 77.6578C85.805 77.1658 87.9539 76.6738 90.0269 75.4184C90.268 75.4748 90.2129 75.7104 90.3989 76.0024C91.8588 74.1068 94.0836 74.3781 95.9363 74.0654C96.0465 73.594 95.7503 73.7734 95.6194 73.2457C94.9512 72.8411 94.8619 74.3114 93.9527 73.8504L94.0077 73.6147C93.5256 73.5021 94.0285 74.6137 93.6014 74.2654C93.4154 73.9734 93.4705 73.7377 93.4705 73.7377C92.6371 74.0401 91.6178 74.0504 91.1564 74.9368C90.8395 74.1171 90.323 75.2391 89.765 74.3631C89.6549 74.8345 89.4138 74.7781 89.3037 75.2495C86.2456 75.2805 83.3943 76.6025 80.226 77.1049C79.0622 78.8212 76.9268 77.0796 75.2601 77.6843C75.2601 77.6843 75.2601 77.6843 75.3151 77.4486C74.7229 77.8073 73.8895 78.1096 73.1663 77.9406L72.76 78.5913C70.6454 77.8487 68.6066 77.8693 66.5679 77.89C64.5842 77.6751 62.5454 77.6957 60.3757 77.1888C58.206 76.6818 56.0914 75.9391 53.9217 75.4322C51.8071 74.6895 49.7684 74.7102 47.2475 74.6182C47.3025 74.3826 47.3025 74.3826 47.3025 74.3826C46.0971 74.1009 45.0019 73.3479 43.7965 73.0663L43.8516 72.8306C42.35 72.7283 40.7176 72.0983 39.3813 71.289C38.0449 70.4797 36.7086 69.6704 35.2621 69.3324C32.5136 66.9504 29.5791 64.2764 26.6996 61.3668L26.9957 61.1875C25.7145 60.1425 25.2666 58.7951 24.5776 57.3915C24.1297 56.0442 23.7369 54.4612 22.7518 53.2368C22.2072 50.1272 18.6253 48.0475 18.673 44.5792C19.4647 42.2789 15.8278 40.4349 17.0466 38.4829C19.1331 34.9939 17.3831 31.6025 15.4471 27.9192C16.2731 24.3842 14.041 20.8802 15.8313 17.5706C14.9563 15.8749 17.3805 14.2045 17.2838 12.4422L16.8017 12.3295C17.9312 11.8479 15.3895 10.7569 16.9461 10.6235C18.2616 10.4339 15.3687 9.7579 16.4431 9.51188L15.961 9.39922C16.016 9.16356 16.4431 9.51188 16.7393 9.33255C16.7393 9.33255 16.016 9.16356 16.3122 8.98422C18.0548 9.14287 16.0503 7.92889 18.034 8.14387C17.9789 8.37953 18.8673 7.84152 19.2394 8.42552C19.2944 8.18985 19.4046 7.71852 18.4402 7.4932C17.4759 7.26787 16.8078 6.86321 15.9744 7.16556L16.6976 7.33455C16.1604 7.45755 16.4015 7.51388 15.9193 7.40122C15.8092 7.87256 14.7898 7.8829 14.4386 8.29791C15.1068 8.70257 14.5145 9.06124 14.4594 9.29691L14.2184 9.24058C13.4401 9.30725 15.5547 10.0499 14.3493 9.76824C14.5561 11.0592 14.2808 12.2376 14.2465 13.4722C14.7287 13.5849 14.0263 14.4149 15.1007 14.1689C14.0263 14.4149 13.5649 15.3013 13.6959 15.8289L13.4548 15.7726C12.0842 16.1979 14.7911 16.5819 12.8833 17.1303C14.0887 17.4119 12.3669 18.2523 13.8134 18.5903C13.5172 18.7696 13.2761 18.7133 13.2761 18.7133C13.2419 19.9479 12.7255 21.0699 12.7463 22.0689C13.8415 22.8219 12.2507 24.1899 13.8832 24.8199C13.4769 25.4706 13.0155 26.3569 13.5736 27.2329L13.3325 27.1766C13.3533 28.1756 13.6152 29.2309 14.4694 29.9276C13.1538 30.1173 13.3399 30.4093 12.9336 31.0599C13.5467 31.7003 13.5124 32.9349 14.3115 33.8672C13.7743 33.9903 14.6285 34.6869 13.8502 34.7536C16.0615 37.2586 16.0688 40.4912 15.353 43.5549C16.0762 43.7239 17.2816 44.0056 18.0048 44.1745C18.0048 44.1745 17.7087 44.3539 17.7637 44.1182C18.1358 44.7022 17.2473 45.2402 17.6194 45.8242C17.3783 45.7679 17.3783 45.7679 17.3783 45.7679C17.8054 46.1162 16.8619 46.8899 17.7711 47.3509L17.475 47.5302L17.716 47.5866C17.4199 47.7659 16.8827 47.8889 16.9377 47.6532C18.1713 52.1665 21.3677 55.8958 23.7308 59.9275L23.4897 59.8712L24.399 60.3322L24.1028 60.5115C24.3096 61.8025 25.701 62.3761 26.2591 63.2521C26.2591 63.2521 25.7218 63.3751 25.6668 63.6108C26.9272 63.6568 25.5224 65.3168 27.2442 64.4765C27.2442 64.4765 26.893 64.8915 26.6519 64.8351C27.5061 65.5318 28.5462 66.5204 29.4004 67.2171C30.2546 67.9138 30.9986 69.0817 31.8528 69.7784C34.3737 69.8704 35.0835 72.273 37.6044 72.365L37.5493 72.6007C40.2012 73.2203 41.9854 75.377 44.5822 76.2323C45.4914 76.6933 46.5108 76.6829 47.4751 76.9082L47.365 77.3796C49.5689 76.6519 50.8918 79.6949 53.1508 78.7315L52.7996 79.1465C53.2059 78.4958 53.9499 79.6638 54.0392 78.1935L54.1702 78.7212C55.8161 77.1175 56.4157 79.9915 58.1926 78.9155L58.1375 79.1511C58.6748 79.0281 59.212 78.9051 59.398 79.1971L59.3429 79.4328C60.514 80.9491 62.1049 79.5811 63.6064 79.6834L63.4412 80.3904C64.0886 79.7961 65.48 80.3697 66.3133 80.0674L66.2583 80.303L66.6095 79.888L66.7404 80.4157C67.8907 80.933 69.0202 80.4513 70.0396 80.441Z" fill="#333333"/>
<path d="M95.5932 86.4121L95.6483 86.1764L95.2971 86.5915L95.5932 86.4121Z" fill="#333333"/>
<path d="M94.7054 86.95L94.4092 87.1293C94.7054 86.95 95.2976 86.5913 95.5938 86.412C96.2411 85.8177 94.1131 87.3087 94.7054 86.95Z" fill="#333333"/>
<path d="M94.7054 86.9501C95.0016 86.7707 94.4093 87.1294 94.1131 87.3088C94.7054 86.9501 94.1131 87.3088 94.7054 86.9501Z" fill="#333333"/>
<path d="M92.8589 81.7965L92.3767 81.6838C93.2309 82.3804 92.0255 82.0988 92.3975 82.6828L92.1564 82.6265C91.7502 83.2771 92.3082 84.1531 92.6252 84.9728L92.3841 84.9165C92.6251 84.9728 92.8662 85.0291 92.8662 85.0291L92.6252 84.9728C91.6058 84.9831 93.0522 85.3211 92.515 85.4441C92.515 85.4441 92.9972 85.5568 93.2383 85.6131C93.3692 86.1408 93.5001 86.6684 94.2784 86.6018C94.2784 86.6018 93.9823 86.7811 93.7412 86.7248C94.5195 86.6581 94.7606 86.7144 94.7606 86.7144C94.7606 86.7144 94.7055 86.9501 94.6505 87.1858C94.9466 87.0064 94.9466 87.0064 95.2427 86.8271C95.5389 86.6478 94.4094 87.1294 95.0017 86.7708L95.2978 86.5914C95.5939 86.4121 94.4644 86.8938 94.7606 86.7144C95.0567 86.5351 95.0567 86.5351 95.2978 86.5914C95.0567 86.5351 95.2978 86.5914 94.5195 86.6581C95.3529 86.3558 94.5195 86.6581 95.3529 86.3558C95.1118 86.2994 95.1118 86.2994 94.5746 86.4224C94.9258 86.0074 94.2576 85.6028 94.4228 84.8958C93.0314 84.3221 94.8291 84.2451 94.402 83.8968C94.402 83.8968 94.402 83.8968 94.6431 83.9531C94.4571 83.6611 94.2711 83.3691 94.5121 83.4254L93.844 83.0208C95.4556 82.6518 94.9527 81.5401 96.0822 81.0584C96.4334 80.6434 97.2117 80.5767 97.3218 80.1054C97.618 79.9261 97.8933 78.7477 97.3353 77.8717C97.5763 77.9281 97.5764 77.9281 97.5764 77.9281C97.4454 77.4004 98.2788 77.0981 98.0928 76.8061L98.3338 76.8624C97.4246 76.4014 97.7758 75.9864 97.8309 75.7507C97.941 75.2794 97.9961 75.0437 97.8101 74.7517C98.1613 74.3367 98.2163 74.1011 98.7536 73.9781L99.0497 73.7987C98.7536 73.9781 98.2714 73.8654 97.9753 74.0447C97.438 74.1677 97.197 74.1114 97.011 73.8194C96.7699 73.7631 96.8249 73.5274 96.3428 73.4147C96.3979 73.1791 96.1568 73.1227 95.6746 73.0101C94.304 73.4354 93.6567 74.0298 93.3397 73.2101C93.6701 71.7961 91.5629 74.2861 91.9483 72.6365C92.2579 70.2235 91.0183 71.1765 89.1656 71.4892C89.1998 70.2545 86.9408 71.2178 87.6224 69.3888C86.4929 69.8705 88.1939 68.0312 87.4707 67.8622L87.1745 68.0415C87.8769 67.2115 85.7489 68.7025 86.9885 67.7495C87.6359 67.1552 85.2116 68.8255 86.1001 68.2875L85.8039 68.4669C85.5629 68.4105 86.1551 68.0519 86.1551 68.0519C86.1551 68.0519 85.5629 68.4105 85.6179 68.1749C87.0986 67.2782 85.1358 68.0622 86.9126 66.9862C86.9126 66.9862 87.56 66.3918 87.8561 66.2125C87.9112 65.9768 87.9112 65.9768 87.0228 66.5148C86.3754 67.1092 85.5421 67.4115 85.1908 67.8265L85.7831 67.4679C85.1908 67.8265 85.487 67.6472 85.1358 68.0622C85.0807 68.2979 84.4333 68.8922 84.1372 69.0715C84.7295 68.7129 84.4334 68.8922 84.3783 69.1279L84.0821 69.3072C83.4898 69.6659 85.2667 68.5899 84.3232 69.3635C84.8054 69.4762 84.9914 69.7682 85.1774 70.0602C85.4735 69.8809 85.3634 70.3522 86.0108 69.7579C85.3083 70.5879 85.2533 70.8235 85.2533 70.8235L84.9571 71.0029C83.9586 72.0122 86.1417 70.2855 84.847 71.4742C85.7905 70.7005 84.7369 71.9455 85.9765 70.9925C85.6804 71.1719 85.6253 71.4075 85.3291 71.5869C85.5151 71.8789 85.405 72.3502 85.591 72.6422C86.4795 72.1042 85.6669 73.4055 86.9065 72.4525C86.8515 72.6882 86.6863 73.3952 87.2786 73.0365L87.2235 73.2722C87.4646 73.3285 87.6506 73.6205 88.5941 72.8468C87.8366 73.9125 88.1327 73.7332 87.7815 74.1482C88.3738 73.7895 88.5598 74.0815 89.1521 73.7228C88.7458 74.3735 89.4483 73.5435 88.9869 74.4298C90.7638 73.3538 91.0257 74.4091 91.1774 75.9358C91.5286 75.5208 91.99 74.6345 92.3962 73.9838L92.3412 74.2195C92.6373 74.0401 92.176 74.9265 92.4171 74.9828C92.362 75.2185 92.362 75.2185 92.362 75.2185C92.7132 74.8035 92.1968 75.9255 92.6031 75.2748L92.548 75.5105L92.8441 75.3311C92.7891 75.5668 92.4379 75.9818 92.4379 75.9818C92.6239 76.2738 92.6789 76.0381 92.9751 75.8588C93.5123 75.7358 94.4007 75.1978 94.5867 75.4898L94.2906 75.6691L95.124 75.3668C94.8278 75.5461 94.8278 75.5461 94.5867 75.4898C93.9945 75.8484 95.4201 75.1874 95.365 75.4231C95.0689 75.6024 94.5317 75.7254 94.2355 75.9048C95.6612 75.2438 92.5137 76.7451 95.6061 75.4794C95.365 75.4231 94.7728 75.7818 94.4766 75.9611C95.0138 75.8381 95.31 75.6588 95.6061 75.4794C95.6061 75.4794 95.6061 75.4794 95.365 75.4231L95.179 75.1311C96.3085 74.6494 96.2535 74.8851 96.2535 74.8851C96.1984 75.1207 95.9573 75.0644 96.7356 74.9977L96.3844 75.4127C97.1627 75.3461 96.8115 75.7611 96.5154 75.9404C96.2192 76.1197 95.868 76.5348 95.8129 76.7704C95.5168 76.9498 95.999 77.0624 95.7028 77.2418L95.2207 77.1291C95.8888 77.5337 95.3516 77.6568 95.1105 77.6004C94.6284 77.4878 94.3322 77.6671 94.9453 78.3074L94.5182 77.9591C95.1864 78.3638 93.981 78.0821 95.3724 78.6558L94.8903 78.5431C96.3575 79.8801 93.8709 78.5534 94.67 79.4858L94.484 79.1938C94.67 79.4858 94.9111 79.5421 94.4289 79.4294L94.1878 79.3731C92.7414 79.0351 94.0226 80.0801 93.7265 80.2594L93.2994 79.9111C93.9676 80.3158 93.1893 80.3824 93.3753 80.6744L93.1342 80.6181C92.5419 80.9768 92.9139 81.5608 92.8589 81.7965Z" fill="#333333"/>
</g>
<defs>
<clipPath id="clip0_227_2">
<rect width="108.837" height="70.3963" fill="white" transform="translate(16.0186 0.450195) rotate(13.1519)"/>
</clipPath>
</defs>
</svg>
