<svg width="123" height="123" viewBox="0 0 123 123" fill="none" xmlns="http://www.w3.org/2000/svg">
<path d="M97.2936 122.687H26.3685C12.4018 122.687 0.974609 111.26 0.974609 97.2936V26.3685C0.974609 12.4018 12.4018 0.974609 26.3685 0.974609H97.2936C111.26 0.974609 122.687 12.4018 122.687 26.3685V97.2936C122.687 111.26 111.26 122.687 97.2936 122.687Z" fill="#E41E1F"/>
<path d="M87.2836 43.0115C87.2884 43.083 87.2907 43.1557 87.2907 43.2285V68.124C87.2907 68.5269 87.224 68.9144 87.1 69.2756C86.6207 70.6848 85.2831 71.7006 83.7141 71.7006H40.4206C38.7539 71.7006 37.3507 70.5549 36.9561 69.0098V55.6083H36.9739V53.138V43.2285C36.9739 43.1557 36.9763 43.083 36.9811 43.0115H36.9561V42.3426C37.1373 41.6345 37.5295 41.0098 38.0636 40.5412C38.4845 40.1717 38.9935 39.8986 39.5539 39.758C39.8316 39.6888 40.1202 39.6519 40.4206 39.6519H83.7153C84.0134 39.6519 84.3043 39.6888 84.5821 39.758C85.1424 39.8974 85.6515 40.1705 86.0723 40.5412C86.5385 40.9502 86.8973 41.4783 87.1012 42.078C87.2025 42.3736 87.2645 42.6872 87.2836 43.0115Z" fill="#E41E1F"/>
<path d="M81.9878 27.8716C84.8086 27.8716 87.1 30.1594 87.1 32.9718V36.0525H36.9561V32.973C36.9561 30.1606 39.2487 27.8728 42.067 27.8728H81.9878V27.8716ZM49.6387 33.8719H74.8334C75.3628 33.8719 75.8432 33.6561 76.1914 33.3068C76.5383 32.9599 76.7541 32.4794 76.7541 31.9501C76.7541 30.8938 75.8897 30.0295 74.8334 30.0295H49.6387C49.1093 30.0295 48.6301 30.2464 48.282 30.5934C47.9338 30.9415 47.718 31.422 47.718 31.9501C47.718 33.0064 48.5812 33.8719 49.6387 33.8719Z" fill="#E41E1F"/>
<path d="M85.2676 89.2285C85.1865 89.2381 85.1043 89.2428 85.0196 89.2428H39.1152C39.0317 89.2428 38.9494 89.2381 38.8672 89.2285H85.2676Z" fill="#333333"/>
<path d="M81.4479 86.3483C79.1732 86.3483 77.3301 84.504 77.3301 82.2304C77.3301 79.9569 79.1732 78.1138 81.4479 78.1138C83.7215 78.1138 85.5646 79.9569 85.5646 82.2304C85.5646 84.504 83.7215 86.3483 81.4479 86.3483Z" fill="white"/>
<path d="M54.665 85.0365C54.665 86.1941 55.6068 87.1359 56.7645 87.1359H67.7053C68.8629 87.1359 69.8059 86.1941 69.8059 85.0365V80.9377C69.8059 79.7788 68.8629 78.837 67.7053 78.837H56.7645C55.6068 78.837 54.665 79.7788 54.665 80.9377V85.0365ZM38.9077 82.23C38.9077 84.5035 40.7508 86.3479 43.0244 86.3479C45.2991 86.3479 47.141 84.5035 47.141 82.23C47.141 79.9565 45.2991 78.1134 43.0244 78.1134C40.7508 78.1134 38.9077 79.9577 38.9077 82.23ZM81.4478 86.3479C83.7213 86.3479 85.5644 84.5035 85.5644 82.23C85.5644 79.9565 83.7213 78.1134 81.4478 78.1134C79.173 78.1134 77.3299 79.9565 77.3299 82.23C77.3299 84.5035 79.1742 86.3479 81.4478 86.3479ZM87.1 75.4929V87.9252C86.846 88.5475 86.3215 89.0315 85.6705 89.2282H85.2676H38.8672C37.8359 89.1102 37.0228 88.2649 36.9561 87.2194V78.7512V75.4917H87.1V75.4929Z" fill="#E41E1F"/>
<path d="M74.8332 30.0283C75.8907 30.0283 76.7538 30.8939 76.7538 31.949C76.7538 32.4783 76.538 32.9587 76.1911 33.3057C75.843 33.655 75.3625 33.8708 74.8332 33.8708H49.6384C48.5809 33.8708 47.7178 33.0052 47.7178 31.949C47.7178 31.4208 47.9336 30.9404 48.2817 30.5922C48.6298 30.2453 49.1091 30.0283 49.6384 30.0283H74.8332Z" fill="white"/>
<path d="M55.9002 85.0366C55.9002 85.5134 56.2876 85.9009 56.7645 85.9009H67.7053C68.1822 85.9009 68.5709 85.5134 68.5709 85.0366V80.9378C68.5709 80.4609 68.1822 80.0722 67.7053 80.0722H56.7645C56.2876 80.0722 55.9002 80.4609 55.9002 80.9378V85.0366ZM67.7053 78.8359C68.8629 78.8359 69.806 79.7778 69.806 80.9366V85.0354C69.806 86.193 68.8629 87.1348 67.7053 87.1348H56.7645C55.6069 87.1348 54.665 86.193 54.665 85.0354V80.9366C54.665 79.7778 55.6069 78.8359 56.7645 78.8359H67.7053Z" fill="white"/>
<path d="M67.7056 80.0713C68.1824 80.0713 68.5711 80.4599 68.5711 80.9368V85.0356C68.5711 85.5125 68.1824 85.9 67.7056 85.9H56.7647C56.2879 85.9 55.9004 85.5125 55.9004 85.0356V80.9368C55.9004 80.4599 56.2879 80.0713 56.7647 80.0713H67.7056Z" fill="#E41E1F"/>
<path d="M43.0229 78.1138C45.2976 78.1138 47.1396 79.9569 47.1396 82.2304C47.1396 84.504 45.2976 86.3483 43.0229 86.3483C40.7494 86.3483 38.9062 84.504 38.9062 82.2304C38.9062 79.9569 40.7506 78.1138 43.0229 78.1138Z" fill="white"/>
<path d="M36.9562 87.2207C37.023 88.2651 37.836 89.1116 38.8673 89.2296C38.9484 89.2391 39.0306 89.2439 39.1153 89.2439H85.0209C85.1044 89.2439 85.1866 89.2391 85.2689 89.2296H85.6719C86.3228 89.0329 86.8474 88.5488 87.1013 87.9265V75.4931H36.9562V78.7525C36.9526 78.799 36.9514 78.8455 36.9514 78.8932V87.0801C36.9514 87.1265 36.9526 87.1742 36.9562 87.2207ZM36.9562 69.0099C37.3508 70.555 38.7552 71.7007 40.4207 71.7007H83.7155C85.2844 71.7007 86.6221 70.6849 87.1013 69.2757C87.2253 68.9145 87.2921 68.527 87.2921 68.1241V43.2286C87.2921 43.1558 87.2897 43.0831 87.2849 43.0116C87.2658 42.6873 87.2039 42.3749 87.1013 42.0781C86.8975 41.4784 86.5386 40.9503 86.0725 40.5413C85.6516 40.1717 85.1425 39.8987 84.5822 39.7581C84.3044 39.6889 84.0147 39.652 83.7155 39.652H40.4207C40.1215 39.652 39.8318 39.6889 39.554 39.7581C38.9937 39.8975 38.4846 40.1706 38.0638 40.5413C37.5297 41.0099 37.1362 41.6334 36.9562 42.3427V43.0116V53.1381V55.6084V69.0099ZM100.577 45.2338V54.9491C100.577 55.4951 100.133 55.9374 99.5884 55.9374H94.456C94.1627 55.9374 93.9004 55.811 93.718 55.6084C93.563 55.4319 93.4665 55.2018 93.4665 54.9491V45.2338C93.4665 44.6878 93.91 44.2455 94.456 44.2455H94.7731V43.7686C94.7731 43.3573 94.4262 43.0104 94.0149 43.0104H91.218V88.1638C91.218 90.9344 89.0291 93.2044 86.2871 93.3379C86.3169 93.506 86.3324 93.6801 86.3324 93.8577V96.8406C86.3324 98.5264 84.9542 99.9045 83.2684 99.9045H79.6274C77.9416 99.9045 76.5623 98.5264 76.5623 96.8406V93.8589C76.5623 93.6836 76.5766 93.5132 76.6064 93.3462H47.8672C47.8946 93.512 47.9101 93.6836 47.9101 93.8589V96.8418C47.9101 98.5276 46.5308 99.9057 44.845 99.9057H41.204C39.5182 99.9057 38.1401 98.5276 38.1401 96.8418V93.8589C38.1401 93.6836 38.1544 93.5132 38.183 93.3462H38.028C35.1679 93.3462 32.8395 91.0215 32.8395 88.165V43.0116H29.5729C29.1616 43.0116 28.8147 43.3585 28.8147 43.7698V44.2467H29.2069C29.7517 44.2467 30.1952 44.689 30.1952 45.235V54.9503C30.1952 55.203 30.1011 55.4331 29.9437 55.6095C29.7613 55.8122 29.499 55.9386 29.2069 55.9386H24.0733C23.5285 55.9386 23.085 55.4963 23.085 54.9503V45.235C23.085 44.689 23.5285 44.2467 24.0733 44.2467H26.3456V43.7698C26.3456 41.9899 27.793 40.5413 29.5741 40.5413H32.8407V32.9732C32.8407 27.8909 36.9812 23.7563 42.0696 23.7563H81.9904C87.0799 23.7563 91.2204 27.8909 91.2204 32.9732V40.5425H94.0173C95.7972 40.5425 97.2458 41.9899 97.2458 43.771V44.2479H99.592C100.134 44.2467 100.577 44.6878 100.577 45.2338ZM87.1001 36.0539V32.9732C87.1001 30.1608 84.8075 27.873 81.988 27.873H42.0672C39.2476 27.873 36.9562 30.1608 36.9562 32.9732V36.0539H87.1001Z" fill="white"/>
<path d="M36.9811 43.0112C36.9763 43.0828 36.9739 43.1555 36.9739 43.2282V53.1378H36.9561V43.0112H36.9811Z" fill="#DC2615"/>
<path d="M36.9739 53.1382H36.9561V55.6084H36.9739V53.1382Z" fill="#DC2615"/>
<path d="M36.9512 78.8931C36.9512 78.8454 36.9524 78.7989 36.9559 78.7524V87.2206C36.9524 87.1741 36.9512 87.1276 36.9512 87.08V78.8931Z" fill="#333333"/>
</svg>
