<svg width="30" height="30" viewBox="0 0 30 30" fill="none" xmlns="http://www.w3.org/2000/svg">
<path d="M15 22.5C13.0109 22.5 11.1032 21.7098 9.6967 20.3033C8.29018 18.8968 7.5 16.9891 7.5 15C7.5 13.0109 8.29018 11.1032 9.6967 9.6967C11.1032 8.29018 13.0109 7.5 15 7.5C16.9891 7.5 18.8968 8.29018 20.3033 9.6967C21.7098 11.1032 22.5 13.0109 22.5 15C22.5 16.9891 21.7098 18.8968 20.3033 20.3033C18.8968 21.7098 16.9891 22.5 15 22.5ZM15 20.625C16.4918 20.625 17.9226 20.0324 18.9775 18.9775C20.0324 17.9226 20.625 16.4918 20.625 15C20.625 13.5082 20.0324 12.0774 18.9775 11.0225C17.9226 9.96763 16.4918 9.375 15 9.375C13.5082 9.375 12.0774 9.96763 11.0225 11.0225C9.96763 12.0774 9.375 13.5082 9.375 15C9.375 16.4918 9.96763 17.9226 11.0225 18.9775C12.0774 20.0324 13.5082 20.625 15 20.625Z" fill="#333333"/>
</svg>
