<svg width="114" height="107" viewBox="0 0 114 107" fill="none" xmlns="http://www.w3.org/2000/svg">
<path d="M67.7394 100.202L66.5046 89.658L77.8299 88.3318L79.0647 98.8759L67.7394 100.202ZM55.1793 90.9842L52.0924 64.624L63.4177 63.2977L66.5046 89.658L55.1793 90.9842ZM98.6284 69.8631L96.1589 48.7749L107.484 47.4486L109.954 68.5369L98.6284 69.8631ZM84.8336 50.1011L83.5988 39.557L94.9241 38.2307L96.1589 48.7749L84.8336 50.1011ZM18.1165 68.6027L16.8817 58.0586L28.207 56.7323L29.4418 67.2764L18.1165 68.6027ZM5.55643 59.3848L4.32167 48.8407L15.647 47.5144L16.8817 58.0586L5.55643 59.3848ZM52.1986 16.5123L50.9639 5.96818L62.2892 4.64194L63.5239 15.1861L52.1986 16.5123ZM11.2722 34.6659L28.2602 32.6765L26.408 16.8603L9.42005 18.8497L11.2722 34.6659ZM3.70429 43.5686L0 11.9363L33.9759 7.95755L37.6802 39.5899L3.70429 43.5686ZM18.6808 97.9306L35.6687 95.9412L33.8166 80.125L16.8286 82.1144L18.6808 97.9306ZM11.1129 106.833L7.40858 75.201L41.3845 71.2223L45.0888 102.855L11.1129 106.833ZM79.224 26.7084L96.212 24.719L94.3598 8.90286L77.3719 10.8922L79.224 26.7084ZM71.6561 35.6112L67.9518 3.97882L101.928 8.61094e-05L105.632 31.6324L71.6561 35.6112ZM90.39 97.5496L88.5378 81.7335L77.2126 83.0597L75.9778 72.5156L98.6284 69.8631L100.481 85.6793L111.806 84.353L113.041 94.8972L90.39 97.5496ZM63.4177 63.2977L62.183 52.7536L84.8336 50.1011L86.0683 60.6452L63.4177 63.2977ZM40.7671 65.9502L39.5323 55.4061L28.207 56.7323L26.9723 46.1882L60.9482 42.2095L62.183 52.7536L50.8577 54.0798L52.0924 64.624L40.7671 65.9502ZM43.3429 38.9268L40.8733 17.8385L52.1986 16.5123L53.4334 27.0564L64.7587 25.7302L65.9935 36.2743L43.3429 38.9268ZM15.0561 30.2145L14.1301 22.3064L22.6241 21.3117L23.5501 29.2198L15.0561 30.2145ZM22.4647 93.4792L21.5387 85.5711L30.0326 84.5764L30.9587 92.4845L22.4647 93.4792ZM83.008 22.257L82.0819 14.3489L90.5759 13.3542L91.502 21.2623L83.008 22.257Z" fill="#333333"/>
</svg>
