<svg width="140" height="82" viewBox="0 0 140 82" fill="none" xmlns="http://www.w3.org/2000/svg">
<g clip-path="url(#clip0_189_88991)">
<path d="M18.8511 13.6021L20.4558 43.2587" stroke="#3F5362" stroke-miterlimit="10" stroke-linecap="round"/>
<path d="M30.167 17.2964L31.5556 42.9588" stroke="#3F5362" stroke-miterlimit="10" stroke-linecap="round"/>
<path d="M41.1509 16.7017L42.5395 42.3641" stroke="#3F5362" stroke-miterlimit="10" stroke-linecap="round"/>
<path d="M52.1348 16.1074L53.5234 41.7699" stroke="#3F5362" stroke-miterlimit="10" stroke-linecap="round"/>
<path d="M63.2188 15.5078L64.6074 41.1703" stroke="#3F5362" stroke-miterlimit="10" stroke-linecap="round"/>
<path d="M74.2026 14.9136L75.5912 40.576" stroke="#3F5362" stroke-miterlimit="10" stroke-linecap="round"/>
<path d="M85.2866 14.3135L86.6752 39.9759" stroke="#3F5362" stroke-miterlimit="10" stroke-linecap="round"/>
<path d="M96.2705 13.7192L97.6591 39.3817" stroke="#84BDD7" stroke-miterlimit="10" stroke-linecap="round"/>
<path d="M107.246 11.1226L108.743 38.7821" stroke="#3F5362" stroke-miterlimit="10" stroke-linecap="round"/>
<path d="M118.105 8.23145L119.656 36.8895" stroke="#3F5362" stroke-miterlimit="10" stroke-linecap="round"/>
<path d="M14.6772 34.5581L15.1581 43.4451" stroke="#3F5362" stroke-miterlimit="10" stroke-linecap="round"/>
<path d="M35.6592 16.999L37.0478 42.6615" stroke="#3F5362" stroke-miterlimit="10" stroke-linecap="round"/>
<path d="M24.4673 15.6016L25.964 43.2611" stroke="#3F5362" stroke-miterlimit="10" stroke-linecap="round"/>
<path d="M46.6431 16.4048L48.0317 42.0672" stroke="#3F5362" stroke-miterlimit="10" stroke-linecap="round"/>
<path d="M57.7266 15.8047L59.1152 41.4671" stroke="#3F5362" stroke-miterlimit="10" stroke-linecap="round"/>
<path d="M68.7104 15.2104L70.0991 40.8729" stroke="#3F5362" stroke-miterlimit="10" stroke-linecap="round"/>
<path d="M79.7944 14.6108L81.183 40.2733" stroke="#3F5362" stroke-miterlimit="10" stroke-linecap="round"/>
<path d="M90.7783 14.0166L92.1669 39.6791" stroke="#3F5362" stroke-miterlimit="10" stroke-linecap="round"/>
<path d="M101.808 12.418L103.251 39.079" stroke="#F5A21A" stroke-miterlimit="10" stroke-linecap="round"/>
<path d="M112.684 9.82666L114.235 38.4847" stroke="#3F5362" stroke-miterlimit="10" stroke-linecap="round"/>
<path d="M9.93799 35.8164L10.3108 42.7063" stroke="#3F5362" stroke-miterlimit="10" stroke-linecap="round"/>
<path d="M5.87646 36.6367L6.13582 41.4297" stroke="#3F5362" stroke-miterlimit="10" stroke-linecap="round"/>
<path d="M2.20361 37.2363L2.3603 40.1321" stroke="#3F5362" stroke-miterlimit="10" stroke-linecap="round"/>
<path d="M123.51 26.6665L123.991 35.5535" stroke="#3F5362" stroke-miterlimit="10" stroke-linecap="round"/>
<path d="M128.257 27.4111L128.63 34.3011" stroke="#3F5362" stroke-miterlimit="10" stroke-linecap="round"/>
<path d="M132.383 27.7886L132.643 32.5816" stroke="#3F5362" stroke-miterlimit="10" stroke-linecap="round"/>
<path d="M136.1 27.9883L136.256 30.884" stroke="#3F5362" stroke-miterlimit="10" stroke-linecap="round"/>
<path d="M18.502 44.1655L19.4637 61.9395" stroke="#3F5362" stroke-width="2" stroke-miterlimit="10" stroke-linecap="round"/>
<path d="M39.3687 44.8394L40.3304 62.6134" stroke="#3F5362" stroke-width="2" stroke-miterlimit="10" stroke-linecap="round"/>
<path d="M59.7388 43.7368L60.7005 61.5108" stroke="#3F5362" stroke-width="2" stroke-miterlimit="10" stroke-linecap="round"/>
<path d="M80.3086 42.624L81.2704 60.398" stroke="#3F5362" stroke-width="2" stroke-miterlimit="10" stroke-linecap="round"/>
<path d="M100.325 40.5396L101.292 58.4134" stroke="#3F5362" stroke-width="2" stroke-miterlimit="10" stroke-linecap="round"/>
<path d="M121.073 39.0161L122.04 56.89" stroke="#3F5362" stroke-width="2" stroke-miterlimit="10" stroke-linecap="round"/>
<path d="M66.3793 66.5112C66.0609 68.0306 64.6683 68.2061 63.1489 67.8878C61.6295 67.5694 60.4879 66.83 60.9061 65.3052C61.2245 63.7858 62.5226 63.7155 64.0474 64.1337C65.5668 64.4521 66.7975 64.9864 66.3793 66.5112Z" stroke="#3F5362" stroke-miterlimit="10"/>
<path d="M62.3096 65.3296C62.3096 65.3296 64.0773 66.5358 65.1379 65.7774" stroke="#3F5362" stroke-miterlimit="10" stroke-linecap="round"/>
<path d="M59.6459 66.0746C60.8037 67.1136 60.3692 68.3389 59.4301 69.4913C58.3912 70.6491 57.2254 71.3131 56.0675 70.2741C54.9097 69.2352 55.4494 68.1043 56.3885 66.9519C57.4275 65.7941 58.4934 65.1355 59.6459 66.0746Z" stroke="#3F5362" stroke-miterlimit="10"/>
<path d="M56.7068 69.1377C56.7068 69.1377 58.5554 68.1364 58.3853 66.8437" stroke="#3F5362" stroke-miterlimit="10" stroke-linecap="round"/>
<path d="M59.409 76.5027C58.1595 77.4716 57.0233 76.8321 56.0544 75.5826C55.0854 74.3331 54.7156 73.0512 55.8652 72.0877C57.1147 71.1188 58.1565 71.8636 59.1254 73.1131C60.0943 74.3625 60.5586 75.5392 59.409 76.5027Z" stroke="#3F5362" stroke-miterlimit="10"/>
<path d="M56.918 73.0322C56.918 73.0322 57.5307 75.1021 58.8342 75.1318" stroke="#3F5362" stroke-miterlimit="10" stroke-linecap="round"/>
<path d="M66.6604 75.4094C66.7414 76.9073 65.5756 77.5712 63.9779 77.6577C62.3803 77.7441 61.1604 77.4095 60.9741 75.8173C60.7878 74.225 62.0697 73.8552 63.662 73.6689C65.2542 73.4826 66.5739 73.8118 66.6604 75.4094Z" stroke="#3F5362" stroke-miterlimit="10"/>
<path d="M62.4556 75.4365C62.4556 75.4365 64.4905 76.0274 65.2407 75.0855" stroke="#3F5362" stroke-miterlimit="10" stroke-linecap="round"/>
<path d="M67.5533 67.8501C69.0673 68.0686 69.3373 69.3559 69.1188 70.8699C68.9003 72.384 68.2661 73.62 66.7521 73.4015C65.2381 73.183 65.068 71.8903 65.2865 70.3763C65.505 68.8623 66.0393 67.6316 67.5533 67.8501Z" stroke="#3F5362" stroke-miterlimit="10"/>
<path d="M66.682 72.1035C66.682 72.1035 67.6832 70.2467 66.9302 69.286" stroke="#3F5362" stroke-miterlimit="10" stroke-linecap="round"/>
<path d="M75.2662 66.0304C75.6468 67.512 76.9557 67.6414 78.3374 67.2662C79.7192 66.891 80.8796 66.1272 80.5044 64.7454C80.1292 63.3637 78.9201 63.2288 77.4385 63.6094C75.9569 63.9901 74.8856 64.5488 75.2662 66.0304Z" stroke="#3F5362" stroke-miterlimit="10"/>
<path d="M79.1008 64.7213C79.1008 64.7213 77.4628 65.9115 76.4264 65.2666" stroke="#3F5362" stroke-miterlimit="10" stroke-linecap="round"/>
<path d="M81.7459 65.4797C80.5962 66.4432 81.0659 67.7197 82.1239 68.7641C83.0874 69.9137 84.2182 70.4534 85.3678 69.4899C86.5174 68.5263 85.9533 67.3551 84.8954 66.3107C83.9318 65.1611 82.7902 64.4217 81.7459 65.4797Z" stroke="#3F5362" stroke-miterlimit="10"/>
<path d="M84.6041 68.3292C84.6041 68.3292 82.7473 67.3281 82.8876 66.2189" stroke="#3F5362" stroke-miterlimit="10" stroke-linecap="round"/>
<path d="M82.2861 75.4648C83.4386 76.4039 84.599 75.6401 85.4382 74.4931C86.2775 73.3461 86.7065 72.021 85.4596 71.1871C84.3072 70.248 83.2466 71.0064 82.4128 72.2533C81.4737 73.4057 81.0339 74.5311 82.2861 75.4648Z" stroke="#3F5362" stroke-miterlimit="10"/>
<path d="M84.5042 72.0399C84.5042 72.0399 83.9078 73.975 82.715 74.1397" stroke="#3F5362" stroke-miterlimit="10" stroke-linecap="round"/>
<path d="M75.1264 74.5506C75.0077 76.0592 76.2384 76.5935 77.7416 76.6123C79.2502 76.731 80.4268 76.2667 80.5509 74.858C80.675 73.4492 79.4497 73.0148 77.9411 72.8961C76.4325 72.7775 75.245 73.042 75.1264 74.5506Z" stroke="#3F5362" stroke-miterlimit="10"/>
<path d="M79.2314 74.5287C79.2314 74.5287 77.2613 75.136 76.5083 74.1753" stroke="#3F5362" stroke-miterlimit="10" stroke-linecap="round"/>
<path d="M74.138 67.3933C72.651 67.6741 72.4162 68.8885 72.697 70.3755C72.9778 71.8625 73.6363 72.9285 75.0289 72.753C76.4214 72.5775 76.6507 71.2632 76.37 69.7762C76.0892 68.2892 75.625 67.1126 74.138 67.3933Z" stroke="#3F5362" stroke-miterlimit="10"/>
<path d="M75.0532 71.3496C75.0532 71.3496 74.0572 69.6008 74.7076 68.6643" stroke="#3F5362" stroke-miterlimit="10" stroke-linecap="round"/>
<path d="M24.2831 51.0637L24.2236 49.9653L30.115 49.6465L30.1745 50.7449L27.9777 50.8637L27.9993 51.2632C28.0263 51.7624 28.1478 52.1564 28.2638 52.4506C28.3799 52.7448 28.5904 52.9337 28.8009 53.1226C29.0114 53.3115 29.3164 53.3951 29.6214 53.4788C29.9263 53.5624 30.3257 53.5408 30.6307 53.6244L30.7009 54.9225C30.4014 54.9387 30.0964 54.8551 29.7969 54.8713C29.4973 54.8875 29.1869 54.704 28.882 54.6204C28.577 54.5367 28.2666 54.3532 28.0561 54.1643C27.8456 53.9754 27.6243 53.5868 27.5082 53.2927C27.4246 53.5976 27.3355 53.8027 27.0468 54.0187C26.758 54.2346 26.5691 54.4451 26.1751 54.5666C25.8809 54.6826 25.4923 54.9039 25.1928 54.9201C24.8986 55.0362 24.599 55.0524 24.3049 55.1685L24.2346 53.8704C24.6287 53.7489 24.9282 53.7327 25.2224 53.6166C25.5165 53.5006 25.8107 53.3845 25.9996 53.174C26.1885 52.9635 26.3774 52.753 26.5609 52.4426C26.6445 52.1376 26.7228 51.7328 26.6958 51.2335L26.6742 50.8341L24.2777 50.9638L24.2831 51.0637ZM33.2487 57.5888L33.3082 58.6872L25.919 59.087C25.6194 59.1032 25.4143 59.0142 25.2038 58.8253C24.9933 58.6364 24.8772 58.3422 24.861 58.0426L24.7475 55.9457L25.9458 55.8809L26.0646 58.0776L33.2541 57.6886L33.2487 57.5888ZM32.5115 49.5168L32.8465 55.7078L31.6483 55.7726L31.3133 49.5816L32.5115 49.5168Z" fill="#3F5362"/>
<path d="M46.5802 52.2605L46.5208 51.1621L55.1082 50.6974L55.1676 51.7958L51.6727 51.9849L51.6781 52.0848C51.6997 52.4842 51.8104 52.6785 52.0209 52.8674C52.2314 53.0563 52.5418 53.2398 52.9466 53.318C53.3514 53.3963 53.7563 53.4745 54.1557 53.4529C54.5551 53.4313 55.0598 53.5041 55.559 53.4771L55.6185 54.5755C55.4188 54.5863 55.2191 54.5971 54.9195 54.6133C54.6199 54.6295 54.4202 54.6403 54.1153 54.5567C53.8157 54.5729 53.5107 54.4893 53.2112 54.5055C52.9062 54.4218 52.6066 54.438 52.3017 54.3544C51.9967 54.2707 51.7916 54.1817 51.5865 54.0926C51.3814 54.0036 51.2707 53.8093 51.1601 53.615C51.071 53.8201 50.9766 53.9254 50.7877 54.1359C50.5934 54.2465 50.3991 54.3572 50.1049 54.4733C49.8107 54.5893 49.5166 54.7054 49.217 54.7216C48.9229 54.8377 48.5234 54.8593 48.2239 54.8755C47.9243 54.8917 47.6302 55.0078 47.3306 55.024C47.031 55.0402 46.8313 55.051 46.6316 55.0618L46.5722 53.9634C47.0715 53.9364 47.5707 53.9094 47.9647 53.7879C48.464 53.7609 48.858 53.6394 49.252 53.5179C49.646 53.3965 49.9348 53.1806 50.1237 52.97C50.3126 52.7595 50.3962 52.4546 50.38 52.155L50.3746 52.0552L46.5802 52.2605ZM55.9559 55.2583L56.0099 56.2568L52.0157 56.4729L52.1184 58.3702L50.9201 58.435L50.8175 56.5378L46.8233 56.7539L46.7693 55.7554L55.9559 55.2583Z" fill="#3F5362"/>
<path d="M66.4999 55.7896L66.4405 54.6912L70.2349 54.4859L70.1647 53.1878L67.5685 53.3282C67.2689 53.3445 67.0638 53.2554 66.8533 53.0665C66.6428 52.8776 66.5267 52.5834 66.5105 52.2839L66.3862 49.9872L67.5845 49.9224L67.7087 52.219L74.9981 51.8246L75.0575 52.923L71.3629 53.1229L71.4332 54.421L75.2276 54.2157L75.2871 55.3141L66.4999 55.7896ZM75.3223 57.8158L75.3817 58.9142L67.9925 59.3141C67.693 59.3303 67.4878 59.2412 67.2773 59.0523C67.0668 58.8634 66.9508 58.5693 66.9345 58.2697L66.8373 56.4723L68.0355 56.4075L68.1328 58.2049L75.3223 57.8158Z" fill="#3F5362"/>
<path d="M90.6292 48.2746L90.6832 49.2732C90.7211 49.9721 90.6536 50.5767 90.4755 50.9869C90.3028 51.497 90.0249 51.9126 89.7415 52.2284C89.4582 52.5441 88.9751 52.8707 88.5865 53.092C88.098 53.3187 87.6042 53.4456 87.1157 53.6723L86.163 52.7224C86.5624 52.7008 87.0563 52.5739 87.4503 52.4525C87.8443 52.331 88.2329 52.1097 88.5217 51.8938C88.8104 51.6779 89.0938 51.3621 89.2719 50.9519C89.45 50.5416 89.5282 50.1368 89.4958 49.5377L89.4904 49.4378L86.2951 49.6107L86.2356 48.5124L90.6292 48.2746ZM91.9007 55.1159L91.5225 48.1261L92.7207 48.0613L92.8504 50.4578L93.9488 50.3984L93.8191 48.0019L95.0174 47.937L95.3956 54.9268L94.1973 54.9916L94.0082 51.4968L92.9098 51.5562L93.099 55.0511L91.9007 55.1159Z" fill="#3F5362"/>
<path d="M107.707 45.5478L107.647 44.4494L112.44 44.19L112.5 45.2884L110.802 45.3803L110.813 45.58C110.84 46.0793 110.862 46.4787 110.978 46.7728C111.094 47.067 111.21 47.3612 111.321 47.5555C111.431 47.7498 111.736 47.8334 111.941 47.9225C112.246 48.0061 112.551 48.0898 112.956 48.168L113.026 49.4661C112.727 49.4823 112.522 49.3933 112.222 49.4095C111.917 49.3258 111.712 49.2368 111.407 49.1531C111.202 49.0641 110.892 48.8806 110.781 48.6863C110.57 48.4974 110.46 48.3031 110.344 48.0089C110.26 48.3139 110.171 48.519 109.982 48.7295C109.793 48.94 109.604 49.1505 109.31 49.2666C109.016 49.3827 108.827 49.5932 108.528 49.6094C108.233 49.7254 108.034 49.7363 107.74 49.8523L107.669 48.5542C108.063 48.4327 108.363 48.4165 108.557 48.3059C108.851 48.1898 109.046 48.0792 109.135 47.874C109.324 47.6635 109.407 47.3586 109.391 47.059C109.475 46.754 109.453 46.3546 109.426 45.8554L109.415 45.6556L107.718 45.7475L107.707 45.5478ZM112.033 45.9146L113.531 45.8335L113.434 44.0362L114.632 43.9713L115.015 51.061L113.817 51.1258L113.59 46.9319L112.093 47.013L112.033 45.9146ZM115.331 43.9335L116.529 43.8687L116.913 50.9583L115.714 51.0231L115.331 43.9335Z" fill="#3F5362"/>
<path d="M96.3128 3.40179L96.2749 2.70282L99.2706 2.54072L99.3084 3.2397L98.21 3.29914L98.2154 3.39899C98.2316 3.69855 98.2478 3.99811 98.3585 4.19242C98.3693 4.39212 98.4799 4.58643 98.5852 4.68088C98.6904 4.77533 98.7957 4.86978 99.0008 4.95883C99.2059 5.04788 99.4056 5.03707 99.6107 5.12612L99.6594 6.0248C99.4597 6.03561 99.3598 6.04101 99.1547 5.95197C98.9496 5.86292 98.8497 5.86832 98.6446 5.77927C98.4395 5.69023 98.3343 5.59578 98.229 5.50132C98.1237 5.40687 98.0131 5.21257 97.9024 5.01826C97.8134 5.22338 97.8188 5.32323 97.6299 5.53374C97.5354 5.639 97.3411 5.74966 97.2467 5.85492C97.0524 5.96558 96.9579 6.07084 96.7582 6.08164C96.5639 6.1923 96.464 6.1977 96.2643 6.20851L96.2157 5.30983C96.4154 5.29902 96.6097 5.18836 96.8094 5.17755C97.0037 5.06689 97.0982 4.96164 97.1926 4.85638C97.2871 4.75112 97.3761 4.54601 97.3653 4.3463C97.3545 4.14659 97.4382 3.84163 97.422 3.54207L97.4112 3.34236L96.3128 3.40179ZM99.0304 3.65533L99.9291 3.6067L99.8643 2.40845L100.563 2.37063L100.806 6.86406L100.207 6.89647L100.067 4.30027L99.0682 4.3543L99.0304 3.65533ZM101.162 2.33821L101.961 2.29498L102.204 6.78841L101.406 6.83164L101.162 2.33821Z" fill="#3F5362"/>
<path d="M107.85 7.48459L104.655 7.65749L104.628 7.15822C104.917 6.94231 105.206 6.72639 105.489 6.41062C105.772 6.09485 105.956 5.78448 106.239 5.46871C106.423 5.15834 106.606 4.84797 106.79 4.5376C106.873 4.23264 106.957 3.92767 106.946 3.72796C106.935 3.52826 106.924 3.32855 106.819 3.2341C106.714 3.13965 106.609 3.0452 106.503 2.95075C106.398 2.8563 106.198 2.8671 106.099 2.8725C105.899 2.88331 105.799 2.88871 105.599 2.89952C105.4 2.91033 105.305 3.01558 105.205 3.02099C105.111 3.12624 104.911 3.13705 104.817 3.24231L104.485 2.65939C104.679 2.54873 104.873 2.43807 105.073 2.42727C105.267 2.31661 105.567 2.3004 105.767 2.28959C105.966 2.27878 106.266 2.26257 106.466 2.25177C106.665 2.24096 106.87 2.33001 107.076 2.41906C107.281 2.50811 107.391 2.70241 107.502 2.89671C107.613 3.09102 107.729 3.38518 107.745 3.68474C107.756 3.88445 107.766 4.08416 107.677 4.28927C107.588 4.49438 107.499 4.69949 107.41 4.9046C107.321 5.10971 107.232 5.31482 107.043 5.52534C106.954 5.73045 106.765 5.94096 106.676 6.14607C106.587 6.35118 106.393 6.46184 106.304 6.66695C106.209 6.77221 106.021 6.98273 105.921 6.98813L107.918 6.88007L107.95 7.47919L107.85 7.48459Z" fill="#3F5362"/>
<path d="M111.076 6.00833L111.151 7.40629L110.452 7.44411L110.377 6.04615L108.08 6.17043L108.053 5.67116L110.16 2.052L110.859 2.01418L111.048 5.50906L111.747 5.47124L111.774 5.97051L111.076 6.00833ZM110.225 3.25024L108.952 5.62253L110.35 5.54689L110.225 3.25024Z" fill="#3F5362"/>
<path d="M116.279 5.92717L112.185 6.1487L112.147 5.44972L113.744 5.36327L113.723 4.96386C113.418 4.88021 113.113 4.79657 112.902 4.60767C112.692 4.41876 112.576 4.12461 112.56 3.82504C112.543 3.52548 112.627 3.22052 112.816 3.01L112.117 3.04783L112.079 2.34885L113.577 2.2678L113.539 1.56882L114.338 1.5256L114.376 2.22458L115.874 2.14353L115.911 2.84251L115.212 2.88033C115.423 3.06923 115.539 3.36339 115.555 3.66295C115.571 3.96251 115.488 4.26748 115.299 4.47799C115.11 4.68851 114.821 4.90442 114.522 4.92063L114.543 5.32005L116.341 5.22279L116.279 5.92717ZM114.009 2.84531C113.909 2.85071 113.809 2.85612 113.715 2.96138C113.615 2.96678 113.52 3.07204 113.52 3.07204C113.426 3.17729 113.426 3.17729 113.331 3.28255C113.337 3.3824 113.242 3.48766 113.248 3.58751C113.259 3.78722 113.369 3.98153 113.474 4.07598C113.68 4.16503 113.785 4.25948 113.985 4.24867C114.084 4.24327 114.184 4.23786 114.279 4.13261C114.379 4.1272 114.473 4.02195 114.473 4.02195C114.567 3.91669 114.567 3.91669 114.662 3.81143C114.656 3.71158 114.751 3.60632 114.746 3.50647C114.74 3.40661 114.735 3.30676 114.629 3.21231C114.624 3.11245 114.519 3.018 114.419 3.02341C114.314 2.92896 114.214 2.93436 114.208 2.83451C114.214 2.93436 114.109 2.83991 114.009 2.84531ZM116.54 1.50658L117.339 1.46336L117.593 6.15649L116.794 6.19972L116.54 1.50658Z" fill="#3F5362"/>
</g>
<defs>
<clipPath id="clip0_189_88991">
<rect width="135.2" height="73.8" fill="white" transform="translate(0.10498 7.70654) rotate(-3.09728)"/>
</clipPath>
</defs>
</svg>
