<svg width="189" height="174" viewBox="0 0 189 174" fill="none" xmlns="http://www.w3.org/2000/svg">
<g clip-path="url(#clip0_273_63)">
<path opacity="0.45" d="M85.9803 169.699C132.384 169.699 170.002 132.148 170.002 85.827C170.002 39.5058 132.384 1.95508 85.9803 1.95508C39.5763 1.95508 1.9585 39.5058 1.9585 85.827C1.9585 132.148 39.5763 169.699 85.9803 169.699Z" stroke="#495262" stroke-width="2" stroke-miterlimit="10" stroke-linecap="round" stroke-dasharray="5 5"/>
<g opacity="0.45">
<path d="M37.0166 53.1772V83.0896" stroke="#495262" stroke-miterlimit="10" stroke-linecap="round" stroke-linejoin="round"/>
<path d="M48.1807 57.4785V83.2853" stroke="#495262" stroke-miterlimit="10" stroke-linecap="round" stroke-linejoin="round"/>
<path d="M59.3442 57.4785V83.2853" stroke="#495262" stroke-miterlimit="10" stroke-linecap="round" stroke-linejoin="round"/>
<path d="M70.312 57.4785V83.2853" stroke="#495262" stroke-miterlimit="10" stroke-linecap="round" stroke-linejoin="round"/>
<path d="M81.4756 57.4785V83.2853" stroke="#495262" stroke-miterlimit="10" stroke-linecap="round" stroke-linejoin="round"/>
<path d="M92.6396 57.4785V83.2853" stroke="#495262" stroke-miterlimit="10" stroke-linecap="round" stroke-linejoin="round"/>
<path d="M103.803 57.4785V83.2853" stroke="#495262" stroke-miterlimit="10" stroke-linecap="round" stroke-linejoin="round"/>
<path d="M114.967 57.4785V83.2853" stroke="#88BED8" stroke-miterlimit="10" stroke-linecap="round" stroke-linejoin="round"/>
<path d="M126.131 55.5234V83.2852" stroke="#495262" stroke-miterlimit="10" stroke-linecap="round" stroke-linejoin="round"/>
<path d="M137.099 53.1772V82.1121" stroke="#495262" stroke-miterlimit="10" stroke-linecap="round" stroke-linejoin="round"/>
<path d="M31.5327 73.9009V82.8941" stroke="#495262" stroke-miterlimit="10" stroke-linecap="round" stroke-linejoin="round"/>
<path d="M53.6646 57.4785V83.2853" stroke="#495262" stroke-miterlimit="10" stroke-linecap="round" stroke-linejoin="round"/>
<path d="M42.5005 55.5234V83.2852" stroke="#495262" stroke-miterlimit="10" stroke-linecap="round" stroke-linejoin="round"/>
<path d="M64.8281 57.4785V83.2853" stroke="#495262" stroke-miterlimit="10" stroke-linecap="round" stroke-linejoin="round"/>
<path d="M75.9917 57.4785V83.2853" stroke="#495262" stroke-miterlimit="10" stroke-linecap="round" stroke-linejoin="round"/>
<path d="M87.1558 57.4785V83.2853" stroke="#495262" stroke-miterlimit="10" stroke-linecap="round" stroke-linejoin="round"/>
<path d="M98.1235 57.4785V83.2853" stroke="#495262" stroke-miterlimit="10" stroke-linecap="round" stroke-linejoin="round"/>
<path d="M109.287 57.4785V83.2853" stroke="#495262" stroke-miterlimit="10" stroke-linecap="round" stroke-linejoin="round"/>
<path d="M120.451 56.501V83.2852" stroke="#F6A217" stroke-miterlimit="10" stroke-linecap="round" stroke-linejoin="round"/>
<path d="M131.615 54.5459V83.2852" stroke="#495262" stroke-miterlimit="10" stroke-linecap="round" stroke-linejoin="round"/>
<path d="M26.832 75.0742V81.9169" stroke="#495262" stroke-miterlimit="10" stroke-linecap="round" stroke-linejoin="round"/>
<path d="M22.7192 75.6606V80.3528" stroke="#495262" stroke-miterlimit="10" stroke-linecap="round" stroke-linejoin="round"/>
<path d="M18.998 76.0518V78.7888" stroke="#495262" stroke-miterlimit="10" stroke-linecap="round" stroke-linejoin="round"/>
<path d="M141.603 71.9458V80.9391" stroke="#495262" stroke-miterlimit="10" stroke-linecap="round" stroke-linejoin="round"/>
<path d="M146.304 72.9233V79.9615" stroke="#495262" stroke-miterlimit="10" stroke-linecap="round" stroke-linejoin="round"/>
<path d="M150.417 73.5098V78.3974" stroke="#495262" stroke-miterlimit="10" stroke-linecap="round" stroke-linejoin="round"/>
<path d="M154.138 74.0962V76.8333" stroke="#495262" stroke-miterlimit="10" stroke-linecap="round" stroke-linejoin="round"/>
<path d="M35.0581 87.3906V111.242" stroke="#495262" stroke-width="2" stroke-miterlimit="10" stroke-linecap="round" stroke-linejoin="round"/>
<path d="M56.0146 87.3906V111.242" stroke="#495262" stroke-width="2" stroke-miterlimit="10" stroke-linecap="round" stroke-linejoin="round"/>
<path d="M76.5796 87.3906V111.242" stroke="#495262" stroke-width="2" stroke-miterlimit="10" stroke-linecap="round" stroke-linejoin="round"/>
<path d="M97.144 87.3906V111.242" stroke="#495262" stroke-width="2" stroke-miterlimit="10" stroke-linecap="round" stroke-linejoin="round"/>
<path d="M117.513 87.3906V111.242" stroke="#495262" stroke-width="2" stroke-miterlimit="10" stroke-linecap="round" stroke-linejoin="round"/>
<path d="M138.47 87.3906V111.242" stroke="#495262" stroke-width="2" stroke-miterlimit="10" stroke-linecap="round" stroke-linejoin="round"/>
<path d="M81.0837 36.1684C80.4961 38.1234 78.7334 38.3189 76.579 37.7324C74.6205 37.1459 73.0536 35.9729 73.6412 34.0178C74.2288 32.0628 75.9914 32.0628 77.95 32.6493C80.1044 33.2358 81.6712 34.2133 81.0837 36.1684Z" stroke="#495262" stroke-miterlimit="10" stroke-linecap="round"/>
<path d="M75.5996 34.2134C75.5996 34.2134 77.9499 35.9729 79.3209 34.9954" stroke="#495262" stroke-miterlimit="10" stroke-linecap="round"/>
<path d="M71.8785 34.9956C73.4453 36.3641 72.6619 38.1237 71.2909 39.6877C69.9199 41.2517 68.1572 42.0338 66.5904 40.4697C65.0235 38.9057 65.807 37.5371 67.3738 35.9731C68.7448 34.6046 70.3116 33.627 71.8785 34.9956Z" stroke="#495262" stroke-miterlimit="10" stroke-linecap="round"/>
<path d="M67.5698 39.101C67.5698 39.101 70.1159 37.7325 70.1159 36.1685" stroke="#495262" stroke-miterlimit="10" stroke-linecap="round"/>
<path d="M70.7036 49.2672C68.9409 50.4403 67.374 49.4628 66.1989 47.7032C65.0238 45.9437 64.4362 44.1841 66.1989 43.0111C67.9616 41.838 69.3326 42.8156 70.5077 44.5751C71.8787 46.3347 72.4663 47.8987 70.7036 49.2672Z" stroke="#495262" stroke-miterlimit="10" stroke-linecap="round"/>
<path d="M67.7656 44.1841C67.7656 44.1841 68.549 46.9212 70.1159 47.1167" stroke="#495262" stroke-miterlimit="10" stroke-linecap="round"/>
<path d="M80.6921 48.0943C80.6921 50.2449 79.1252 50.8314 76.9708 51.0269C74.8164 51.0269 73.0537 50.4404 73.0537 48.2898C73.0537 46.1393 74.6206 45.7482 76.775 45.5527C78.9294 45.5527 80.6921 46.1393 80.6921 48.0943Z" stroke="#495262" stroke-miterlimit="10" stroke-linecap="round"/>
<path d="M75.0122 47.8988C75.0122 47.8988 77.7542 48.8764 78.9293 47.5078" stroke="#495262" stroke-miterlimit="10" stroke-linecap="round"/>
<path d="M82.455 38.1233C84.6094 38.5143 84.8052 40.2739 84.4135 42.4244C84.0218 44.575 83.0426 45.9435 80.8881 45.5525C78.7337 45.1615 78.7337 43.402 79.1255 41.2514C79.713 39.2963 80.4964 37.7323 82.455 38.1233Z" stroke="#495262" stroke-miterlimit="10" stroke-linecap="round"/>
<path d="M81.084 43.5976C81.084 43.5976 82.6508 41.056 81.6715 39.6875" stroke="#495262" stroke-miterlimit="10" stroke-linecap="round"/>
<path d="M93.0311 36.1686C93.4228 38.1236 95.1855 38.5146 97.1441 38.1236C99.1026 37.7326 100.669 36.7551 100.278 34.8C99.8861 32.845 98.1234 32.6495 96.1648 33.0405C94.2063 33.4315 92.6394 34.2135 93.0311 36.1686Z" stroke="#495262" stroke-miterlimit="10" stroke-linecap="round"/>
<path d="M98.5152 34.6045C98.5152 34.6045 96.1649 35.973 94.7939 35.191" stroke="#495262" stroke-miterlimit="10" stroke-linecap="round"/>
<path d="M101.844 35.7773C100.277 36.9503 100.865 38.7099 102.04 40.2739C103.215 41.838 104.782 42.8155 106.349 41.4469C107.916 40.2739 107.328 38.7099 105.957 36.9503C104.782 35.5818 103.411 34.6042 101.844 35.7773Z" stroke="#495262" stroke-miterlimit="10" stroke-linecap="round"/>
<path d="M105.565 39.883C105.565 39.883 103.215 38.5144 103.411 36.7549" stroke="#495262" stroke-miterlimit="10" stroke-linecap="round"/>
<path d="M101.844 49.4629C103.411 50.8315 104.978 49.854 106.153 48.2899C107.328 46.7259 108.112 45.1618 106.545 43.7933C104.978 42.4247 103.607 43.4023 102.236 44.9663C100.865 46.5304 100.278 48.0944 101.844 49.4629Z" stroke="#495262" stroke-miterlimit="10" stroke-linecap="round"/>
<path d="M105.174 44.9663C105.174 44.9663 104.195 47.5079 102.628 47.7034" stroke="#495262" stroke-miterlimit="10" stroke-linecap="round"/>
<path d="M92.2475 47.703C92.0517 49.6581 93.6185 50.4401 95.5771 50.8311C97.5356 51.0266 99.2983 50.6356 99.4942 48.6805C99.69 46.7255 98.1232 45.9435 96.1646 45.748C94.2061 45.3569 92.4434 45.5525 92.2475 47.703Z" stroke="#495262" stroke-miterlimit="10" stroke-linecap="round"/>
<path d="M97.9273 47.8985C97.9273 47.8985 95.1853 48.485 94.2061 47.312" stroke="#495262" stroke-miterlimit="10" stroke-linecap="round"/>
<path d="M91.4643 37.9278C89.5057 38.1233 88.9182 39.8828 89.3099 41.8379C89.5057 43.7929 90.2891 45.357 92.4435 45.1615C94.4021 44.966 94.7938 43.2064 94.4021 41.2514C94.0104 39.1008 93.4228 37.5368 91.4643 37.9278Z" stroke="#495262" stroke-miterlimit="10" stroke-linecap="round"/>
<path d="M92.4434 43.4021C92.4434 43.4021 91.2683 40.8605 92.2476 39.6875" stroke="#495262" stroke-miterlimit="10" stroke-linecap="round"/>
</g>
<g opacity="0.45">
<path d="M73.0539 120.236V118.672H79.7129V120.236H77.3627V120.432C77.3627 121.018 77.3627 121.605 77.5585 121.996C77.7544 122.387 77.7544 122.778 77.9502 122.973C78.1461 123.169 78.5378 123.364 78.7337 123.56C79.1254 123.755 79.5171 123.755 80.1047 123.951V125.71C79.7129 125.71 79.3212 125.71 78.9295 125.515C78.5378 125.319 78.1461 125.319 77.9502 125.124C77.5585 124.928 77.3627 124.733 76.971 124.342C76.7751 124.146 76.5793 123.755 76.3834 123.364C76.1876 123.755 75.9917 124.146 75.7958 124.342C75.6 124.537 75.2083 124.928 74.8166 125.124C74.4249 125.319 74.0331 125.515 73.6414 125.515C73.2497 125.71 72.858 125.71 72.4663 125.71V123.951C73.0539 123.951 73.4456 123.755 73.8373 123.56C74.229 123.364 74.4249 123.169 74.6207 122.973C74.8166 122.778 75.0124 122.387 75.0124 121.996C75.2083 121.605 75.2083 121.018 75.2083 120.236V120.041H73.0539V120.236ZM78.9295 121.018H80.8881V118.477H82.4549V128.252H80.8881V122.582H78.9295V121.018ZM83.63 118.672H85.3927V128.447H83.63V118.672Z" fill="#495262"/>
<path d="M97.5356 130.402H90.4849V129.425C91.0724 129.034 91.66 128.447 92.4434 127.861C93.031 127.274 93.6185 126.688 94.2061 125.906C94.7937 125.319 95.1854 124.537 95.3812 123.951C95.7729 123.364 95.7729 122.778 95.7729 122.191C95.7729 121.8 95.7729 121.409 95.5771 121.214C95.3812 121.018 95.1854 120.823 94.9895 120.627C94.7937 120.432 94.402 120.432 94.0103 120.432C93.6185 120.432 93.4227 120.432 93.031 120.432C92.6393 120.432 92.4434 120.627 92.0517 120.627C91.66 120.823 91.4641 120.823 91.2683 121.018L90.6807 119.845C91.0724 119.65 91.4641 119.454 92.0517 119.258C92.6393 119.063 93.031 119.063 93.6185 119.063C94.2061 119.063 94.5978 119.063 95.1854 119.063C95.5771 119.063 96.1647 119.258 96.5564 119.454C96.9481 119.649 97.3398 120.041 97.5356 120.432C97.7315 120.823 97.9273 121.409 97.9273 122.191C97.9273 122.582 97.9274 122.973 97.7315 123.56C97.5356 123.951 97.3398 124.537 97.1439 124.928C96.9481 125.319 96.5564 125.906 96.3605 126.297C95.9688 126.688 95.7729 127.079 95.3812 127.47C94.9895 127.861 94.7937 128.252 94.402 128.447C94.0103 128.838 93.8144 129.034 93.6185 129.229H97.9273V130.402H97.5356Z" fill="#495262"/>
<path d="M104.783 127.665V130.598H103.216V127.665H98.3193V126.492L103.412 119.063H104.978V126.492H106.545V127.665H104.783ZM103.216 121.409L100.082 126.492H103.216V121.409Z" fill="#495262"/>
<path d="M116.142 127.861H107.133V126.492H110.658V125.71C109.875 125.515 109.287 125.319 108.896 124.733C108.504 124.342 108.308 123.755 108.308 122.973C108.308 122.191 108.504 121.605 108.896 121.214H107.525V119.649H110.854V118.085H112.617V119.649H115.555V121.214H114.184C114.575 121.605 114.771 122.191 114.771 122.973C114.771 123.56 114.575 124.146 114.184 124.733C113.792 125.124 113.204 125.515 112.421 125.71V126.492H116.338L116.142 127.861ZM111.442 121.214C111.246 121.214 111.05 121.214 110.854 121.409C110.658 121.409 110.462 121.605 110.266 121.8C110.071 121.996 110.071 122.191 109.875 122.387C109.875 122.582 109.679 122.778 109.679 122.973C109.679 123.364 109.875 123.755 110.071 124.146C110.462 124.537 110.854 124.537 111.246 124.537C111.442 124.537 111.637 124.537 111.833 124.342C112.029 124.342 112.225 124.146 112.421 123.951C112.617 123.755 112.617 123.56 112.813 123.364C112.813 123.169 113.008 122.973 113.008 122.778C113.008 122.582 113.008 122.387 112.813 122.191C112.813 121.996 112.617 121.8 112.421 121.605C112.225 121.409 112.029 121.409 111.833 121.214C111.833 121.214 111.637 121.214 111.442 121.214ZM117.121 118.672H118.884V128.838H117.121V118.672Z" fill="#495262"/>
</g>
<g opacity="0.45">
<path d="M50.5303 137.049V135.485H58.7562V137.049H55.6226V137.636C55.6226 138.222 55.6226 138.809 55.8184 139.2C56.0143 139.591 56.2101 139.982 56.6018 140.177C56.9935 140.373 57.1894 140.568 57.777 140.764C58.3645 140.96 58.7562 140.959 59.1479 141.155V142.719C58.7562 142.719 58.3645 142.719 57.9728 142.524C57.5811 142.328 57.1894 142.328 56.6018 142.133C56.2101 141.937 55.8184 141.742 55.4267 141.351C55.035 141.155 54.8391 140.764 54.6433 140.373C54.4474 140.764 54.2516 141.155 53.8599 141.351C53.4681 141.546 53.0764 141.937 52.6847 142.133C52.293 142.328 51.7055 142.524 51.3137 142.524C51.1179 142.719 50.7262 142.719 50.3345 142.719V140.959C50.922 140.959 51.3137 140.764 51.7055 140.764C52.0972 140.568 52.4889 140.568 52.8806 140.177C53.2723 139.982 53.4681 139.591 53.664 139.2C53.8599 138.809 53.8599 138.222 53.8599 137.636V137.049H50.5303ZM62.4775 146.629V148.193H52.293C51.9013 148.193 51.5096 147.998 51.3137 147.802C51.1179 147.607 50.922 147.216 50.922 146.629V143.697H52.6847V146.629H62.4775ZM62.0858 135.485V144.088H60.5189V135.485H62.0858Z" fill="#495262"/>
<path d="M63.4566 137.049V135.485H75.4037V137.049H70.5074V137.245C70.5074 137.636 70.7032 138.027 70.8991 138.418C71.2908 138.613 71.6825 139.004 72.0742 139.004C72.6618 139.2 73.0535 139.2 73.8369 139.395C74.4245 139.395 75.012 139.395 75.7955 139.395V140.959C75.5996 140.959 75.2079 140.959 74.8162 140.959C74.4245 140.959 74.0328 140.959 73.6411 140.959C73.2493 140.959 72.8576 140.764 72.4659 140.764C72.0742 140.764 71.6825 140.568 71.2908 140.373C70.8991 140.177 70.7032 140.177 70.3115 139.982C70.1157 139.786 69.9198 139.591 69.724 139.395C69.724 139.591 69.5281 139.786 69.1364 139.982C68.9405 140.177 68.5488 140.373 68.1571 140.373C67.7654 140.568 67.3737 140.568 66.7861 140.764C66.3944 140.764 65.8069 140.959 65.4152 140.959C65.0234 140.959 64.6317 140.959 64.24 140.959C63.8483 140.959 63.6525 140.959 63.2607 140.959V139.395C63.8483 139.395 64.6317 139.395 65.2193 139.395C65.8069 139.395 66.3944 139.2 66.982 139.004C67.5696 138.809 67.9613 138.613 68.1571 138.418C68.353 138.222 68.5488 137.831 68.5488 137.245V137.049H63.4566ZM75.9913 141.937V143.306H70.5074V145.847H68.7447V143.306H63.2607V141.937H75.9913Z" fill="#495262"/>
<path d="M80.8877 143.306V141.742H86.1758V139.982H82.4545C82.0628 139.982 81.867 139.787 81.4753 139.591C81.2794 139.396 81.0836 139.005 81.0836 138.418V135.29H82.8462V138.418H92.8348V139.982H87.7426V141.742H93.0307V143.306H80.8877ZM92.8348 146.629V148.193H82.6504C82.2587 148.193 81.867 147.998 81.6711 147.802C81.4753 147.607 81.2794 147.216 81.2794 146.629V144.088H83.0421V146.629H92.8348Z" fill="#495262"/>
<path d="M100.474 135.681V137.05C100.474 138.027 100.278 138.809 100.082 139.396C99.8859 139.982 99.4942 140.569 98.9067 140.96C98.515 141.351 97.9274 141.742 97.144 141.937C96.5564 142.133 95.773 142.328 94.9896 142.524L93.8145 141.155C94.402 141.155 94.9896 140.96 95.5771 140.96C96.1647 140.764 96.7523 140.569 97.144 140.178C97.5357 139.787 97.9274 139.396 98.3191 139.005C98.7108 138.614 98.7108 137.832 98.7108 137.05V136.854H94.402V135.29H100.474V135.681ZM101.649 145.261V135.486H103.411V138.809H104.978V135.486H106.545V145.261H104.978V140.373H103.411V145.261H101.649Z" fill="#495262"/>
<path d="M107.72 137.049V135.485H114.379V137.049H112.029V137.245C112.029 137.831 112.029 138.418 112.225 138.809C112.42 139.2 112.42 139.591 112.616 139.786C112.812 139.982 113.204 140.177 113.4 140.373C113.791 140.568 114.183 140.568 114.771 140.764V142.524C114.379 142.524 113.987 142.524 113.596 142.328C113.204 142.133 112.812 142.133 112.616 141.937C112.225 141.742 112.029 141.546 111.637 141.155C111.441 140.959 111.245 140.568 111.049 140.177C110.854 140.568 110.658 140.959 110.462 141.155C110.266 141.351 109.874 141.742 109.483 141.937C109.091 142.133 108.699 142.328 108.307 142.328C107.916 142.524 107.524 142.524 107.132 142.524V140.764C107.72 140.764 108.112 140.568 108.503 140.373C108.895 140.177 109.091 139.982 109.287 139.786C109.483 139.591 109.678 139.2 109.678 138.809C109.874 138.418 109.874 137.831 109.874 137.049V136.854H107.72V137.049ZM113.791 138.027H115.75V135.485H117.317V145.261H115.75V139.591H113.791V138.027ZM118.296 135.485H120.059V145.261H118.296V135.485Z" fill="#495262"/>
</g>
<path d="M103.02 172.24C149.424 172.24 187.042 134.69 187.042 88.3685C187.042 42.0473 149.424 4.49658 103.02 4.49658C56.6159 4.49658 18.998 42.0473 18.998 88.3685C18.998 134.69 56.6159 172.24 103.02 172.24Z" stroke="#7B4695" stroke-width="2" stroke-miterlimit="10" stroke-linecap="round" stroke-dasharray="5 5"/>
<path d="M54.0562 55.7188V85.6311" stroke="#7B4695" stroke-miterlimit="10" stroke-linecap="round" stroke-linejoin="round"/>
<path d="M65.2202 60.02V85.8268" stroke="#7B4695" stroke-miterlimit="10" stroke-linecap="round" stroke-linejoin="round"/>
<path d="M76.3838 60.02V85.8268" stroke="#7B4695" stroke-miterlimit="10" stroke-linecap="round" stroke-linejoin="round"/>
<path d="M87.5474 60.02V85.8268" stroke="#7B4695" stroke-miterlimit="10" stroke-linecap="round" stroke-linejoin="round"/>
<path d="M98.5151 60.02V85.8268" stroke="#7B4695" stroke-miterlimit="10" stroke-linecap="round" stroke-linejoin="round"/>
<path d="M109.679 60.02V85.8268" stroke="#7B4695" stroke-miterlimit="10" stroke-linecap="round" stroke-linejoin="round"/>
<path d="M120.843 60.02V85.8268" stroke="#7B4695" stroke-miterlimit="10" stroke-linecap="round" stroke-linejoin="round"/>
<path d="M132.006 60.02V85.8268" stroke="#7B4695" stroke-miterlimit="10" stroke-linecap="round" stroke-linejoin="round"/>
<path d="M143.17 58.0649V85.8267" stroke="#7B4695" stroke-miterlimit="10" stroke-linecap="round" stroke-linejoin="round"/>
<path d="M154.138 55.7188V84.4581" stroke="#7B4695" stroke-miterlimit="10" stroke-linecap="round" stroke-linejoin="round"/>
<path d="M48.7681 76.4424V85.4356" stroke="#7B4695" stroke-miterlimit="10" stroke-linecap="round" stroke-linejoin="round"/>
<path d="M70.7041 60.02V85.8268" stroke="#7B4695" stroke-miterlimit="10" stroke-linecap="round" stroke-linejoin="round"/>
<path d="M59.7358 58.0649V85.8267" stroke="#7B4695" stroke-miterlimit="10" stroke-linecap="round" stroke-linejoin="round"/>
<path d="M81.8677 60.02V85.8268" stroke="#7B4695" stroke-miterlimit="10" stroke-linecap="round" stroke-linejoin="round"/>
<path d="M93.0312 60.02V85.8268" stroke="#7B4695" stroke-miterlimit="10" stroke-linecap="round" stroke-linejoin="round"/>
<path d="M104.195 60.02V85.8268" stroke="#7B4695" stroke-miterlimit="10" stroke-linecap="round" stroke-linejoin="round"/>
<path d="M115.359 60.02V85.8268" stroke="#7B4695" stroke-miterlimit="10" stroke-linecap="round" stroke-linejoin="round"/>
<path d="M126.327 60.02V85.8268" stroke="#7B4695" stroke-miterlimit="10" stroke-linecap="round" stroke-linejoin="round"/>
<path d="M137.49 59.0425V85.8268" stroke="#7B4695" stroke-miterlimit="10" stroke-linecap="round" stroke-linejoin="round"/>
<path d="M148.654 56.8921V85.8269" stroke="#7B4695" stroke-miterlimit="10" stroke-linecap="round" stroke-linejoin="round"/>
<path d="M43.8716 77.4199V84.4581" stroke="#7B4695" stroke-miterlimit="10" stroke-linecap="round" stroke-linejoin="round"/>
<path d="M39.7588 78.0063V82.894" stroke="#7B4695" stroke-miterlimit="10" stroke-linecap="round" stroke-linejoin="round"/>
<path d="M36.0376 78.5933V81.3303" stroke="#7B4695" stroke-miterlimit="10" stroke-linecap="round" stroke-linejoin="round"/>
<path d="M158.643 74.4873V83.4806" stroke="#7B4695" stroke-miterlimit="10" stroke-linecap="round" stroke-linejoin="round"/>
<path d="M163.343 75.4648V82.3075" stroke="#7B4695" stroke-miterlimit="10" stroke-linecap="round" stroke-linejoin="round"/>
<path d="M167.456 76.0513V80.9389" stroke="#7B4695" stroke-miterlimit="10" stroke-linecap="round" stroke-linejoin="round"/>
<path d="M171.177 76.4424V79.375" stroke="#7B4695" stroke-miterlimit="10" stroke-linecap="round" stroke-linejoin="round"/>
<path d="M52.0977 89.7368V113.784" stroke="#7B4695" stroke-width="2" stroke-miterlimit="10" stroke-linecap="round" stroke-linejoin="round"/>
<path d="M73.0542 89.7368V113.784" stroke="#7B4695" stroke-width="2" stroke-miterlimit="10" stroke-linecap="round" stroke-linejoin="round"/>
<path d="M93.6191 89.7368V113.784" stroke="#7B4695" stroke-width="2" stroke-miterlimit="10" stroke-linecap="round" stroke-linejoin="round"/>
<path d="M114.184 89.7368V113.784" stroke="#7B4695" stroke-width="2" stroke-miterlimit="10" stroke-linecap="round" stroke-linejoin="round"/>
<path d="M134.553 89.7368V113.784" stroke="#7B4695" stroke-width="2" stroke-miterlimit="10" stroke-linecap="round" stroke-linejoin="round"/>
<path d="M155.509 89.7368V113.784" stroke="#7B4695" stroke-width="2" stroke-miterlimit="10" stroke-linecap="round" stroke-linejoin="round"/>
<path d="M98.1232 38.7099C97.5357 40.6649 95.773 40.8605 93.6186 40.2739C91.66 39.6874 90.0932 38.5144 90.6807 36.5593C91.2683 34.6043 93.031 34.6043 94.9895 35.1908C97.144 35.7773 98.7108 36.7548 98.1232 38.7099Z" stroke="#7B4695" stroke-miterlimit="10" stroke-linecap="round"/>
<path d="M92.6392 36.7549C92.6392 36.7549 94.9894 38.5144 96.3604 37.5369" stroke="#7B4695" stroke-miterlimit="10" stroke-linecap="round"/>
<path d="M88.918 37.5371C90.4849 38.9056 89.7014 40.6652 88.3305 42.2292C86.9595 43.7932 85.1968 44.5753 83.6299 43.0112C82.0631 41.4472 82.8465 40.0786 84.4134 38.5146C85.7843 37.1461 87.3512 36.1685 88.918 37.5371Z" stroke="#7B4695" stroke-miterlimit="10" stroke-linecap="round"/>
<path d="M84.6094 41.4467C84.6094 41.4467 87.1555 40.0782 87.1555 38.5142" stroke="#7B4695" stroke-miterlimit="10" stroke-linecap="round"/>
<path d="M87.7431 51.6134C85.9804 52.7865 84.4136 51.8089 83.2385 50.0494C82.0633 48.2898 81.4758 46.5303 83.2385 45.3573C85.0012 44.1842 86.3721 45.1618 87.5473 46.9213C88.9183 48.8764 89.5058 50.4404 87.7431 51.6134Z" stroke="#7B4695" stroke-miterlimit="10" stroke-linecap="round"/>
<path d="M84.8052 46.7256C84.8052 46.7256 85.5886 49.4627 87.1554 49.6582" stroke="#7B4695" stroke-miterlimit="10" stroke-linecap="round"/>
<path d="M97.9274 50.6356C97.9274 52.7862 96.3606 53.3727 94.2062 53.5682C92.0518 53.5682 90.2891 52.9817 90.2891 50.8312C90.2891 48.6806 91.8559 48.2896 94.0103 48.0941C96.1647 47.8986 97.7316 48.6806 97.9274 50.6356Z" stroke="#7B4695" stroke-miterlimit="10" stroke-linecap="round"/>
<path d="M92.0518 50.4403C92.0518 50.4403 94.7937 51.4179 95.9689 50.0493" stroke="#7B4695" stroke-miterlimit="10" stroke-linecap="round"/>
<path d="M99.4945 40.6648C101.649 41.0558 101.845 42.8154 101.453 44.9659C101.061 47.1165 100.082 48.485 97.9277 48.094C95.7733 47.703 95.7733 45.9435 96.165 43.7929C96.7526 41.8378 97.536 40.2738 99.4945 40.6648Z" stroke="#7B4695" stroke-miterlimit="10" stroke-linecap="round"/>
<path d="M98.1235 46.1391C98.1235 46.1391 99.6904 43.5975 98.7111 42.229" stroke="#7B4695" stroke-miterlimit="10" stroke-linecap="round"/>
<path d="M110.071 38.7101C110.462 40.6651 112.225 41.0561 114.184 40.6651C116.142 40.2741 117.709 39.2966 117.317 37.3415C116.926 35.3865 115.163 35.191 113.204 35.582C111.246 35.973 109.679 36.755 110.071 38.7101Z" stroke="#7B4695" stroke-miterlimit="10" stroke-linecap="round"/>
<path d="M115.555 37.146C115.555 37.146 113.204 38.5145 111.833 37.7325" stroke="#7B4695" stroke-miterlimit="10" stroke-linecap="round"/>
<path d="M118.884 38.3188C117.317 39.4918 117.905 41.2514 119.08 42.8154C120.255 44.3795 121.822 45.357 123.389 43.9884C124.955 42.8154 124.368 41.2514 122.997 39.4918C121.822 38.1233 120.451 37.1457 118.884 38.3188Z" stroke="#7B4695" stroke-miterlimit="10" stroke-linecap="round"/>
<path d="M122.605 42.4245C122.605 42.4245 120.255 41.0559 120.451 39.2964" stroke="#7B4695" stroke-miterlimit="10" stroke-linecap="round"/>
<path d="M118.884 52.0045C120.451 53.373 122.018 52.3955 123.193 50.8314C124.564 49.2674 125.151 47.7033 123.584 46.3348C122.018 44.9663 120.647 45.9438 119.276 47.5078C117.905 49.0719 117.317 50.6359 118.884 52.0045Z" stroke="#7B4695" stroke-miterlimit="10" stroke-linecap="round"/>
<path d="M122.214 47.5078C122.214 47.5078 121.234 50.0494 119.667 50.2449" stroke="#7B4695" stroke-miterlimit="10" stroke-linecap="round"/>
<path d="M109.287 50.2446C109.091 52.1997 110.658 52.9817 112.617 53.3727C114.575 53.7637 116.338 53.1772 116.534 51.2221C116.73 49.2671 115.163 48.4851 113.204 48.2896C111.246 48.0941 109.679 48.0941 109.287 50.2446Z" stroke="#7B4695" stroke-miterlimit="10" stroke-linecap="round"/>
<path d="M114.967 50.44C114.967 50.44 112.225 51.0265 111.246 49.8535" stroke="#7B4695" stroke-miterlimit="10" stroke-linecap="round"/>
<path d="M108.504 40.2739C106.545 40.4694 105.958 42.2289 106.349 44.184C106.741 46.139 107.329 47.7031 109.483 47.5076C111.442 47.3121 111.833 45.5525 111.442 43.5975C111.246 41.6424 110.462 40.0784 108.504 40.2739Z" stroke="#7B4695" stroke-miterlimit="10" stroke-linecap="round"/>
<path d="M109.483 45.7478C109.483 45.7478 108.308 43.2062 109.287 42.0332" stroke="#7B4695" stroke-miterlimit="10" stroke-linecap="round"/>
<path d="M90.0934 122.778V121.214H96.7525V122.778H94.4022V122.973C94.4022 123.56 94.4022 124.146 94.5981 124.537C94.7939 124.928 94.7939 125.319 94.9898 125.515C95.1857 125.71 95.5774 125.906 95.7732 126.101C96.1649 126.297 96.5566 126.297 97.1442 126.492V128.252C96.7525 128.252 96.3608 128.252 95.9691 128.056C95.5774 127.861 95.1857 127.861 94.9898 127.665C94.5981 127.47 94.4022 127.274 94.0105 126.883C93.8147 126.688 93.6188 126.297 93.423 125.906C93.2271 126.297 93.0312 126.688 92.8354 126.883C92.6395 127.079 92.2478 127.47 91.8561 127.665C91.4644 127.861 91.0727 128.056 90.681 128.056C90.2893 128.252 89.8976 128.252 89.5059 128.252V126.492C90.0934 126.492 90.4851 126.297 90.8768 126.101C91.2686 125.906 91.4644 125.71 91.6603 125.515C91.8561 125.319 92.052 124.928 92.052 124.537C92.2478 124.146 92.2478 123.56 92.2478 122.778V122.582H90.0934V122.778ZM96.1649 123.56H98.1235V121.018H99.6903V130.793H98.1235V125.124H96.1649V123.56ZM100.67 121.018H102.432V130.793H100.67V121.018Z" fill="#7B4695"/>
<path d="M114.575 132.944H107.524V131.966C108.112 131.575 108.7 130.989 109.483 130.402C110.071 129.816 110.658 129.229 111.246 128.447C111.833 127.861 112.225 127.079 112.421 126.492C112.812 125.906 112.812 125.319 112.812 124.733C112.812 124.342 112.812 123.951 112.617 123.755C112.421 123.56 112.225 123.364 112.029 123.169C111.833 122.973 111.442 122.973 111.05 122.973C110.658 122.973 110.462 122.973 110.071 122.973C109.679 122.973 109.483 123.169 109.091 123.169C108.7 123.364 108.504 123.364 108.308 123.56L107.72 122.387C108.112 122.191 108.504 121.996 109.091 121.8C109.679 121.604 110.071 121.604 110.658 121.604C111.246 121.604 111.637 121.604 112.225 121.604C112.617 121.604 113.204 121.8 113.596 121.996C113.988 122.191 114.379 122.582 114.575 122.973C114.771 123.364 114.967 123.951 114.967 124.733C114.967 125.124 114.967 125.515 114.771 126.101C114.575 126.492 114.379 127.079 114.183 127.47C113.988 127.861 113.596 128.447 113.4 128.838C113.008 129.229 112.812 129.62 112.421 130.011C112.029 130.402 111.833 130.793 111.442 130.989C111.05 131.38 110.854 131.575 110.658 131.771H114.967V132.944H114.575Z" fill="#7B4695"/>
<path d="M121.822 130.207V133.139H120.255V130.207H115.359V129.034L120.451 121.604H122.018V129.034H123.389V130.207H121.822ZM120.255 123.951L117.122 129.034H120.255V123.951Z" fill="#7B4695"/>
<path d="M133.182 130.402H124.172V129.034H127.698V128.252C126.914 128.056 126.327 127.861 125.935 127.274C125.543 126.883 125.347 126.297 125.347 125.515C125.347 124.733 125.543 124.146 125.935 123.755H124.564V122.191H127.894V120.627H129.265V122.191H132.594V123.755H131.223C131.615 124.146 131.811 124.733 131.811 125.515C131.811 126.101 131.615 126.688 131.223 127.274C130.831 127.665 130.244 128.056 129.46 128.252V129.034H133.378L133.182 130.402ZM128.481 123.755C128.285 123.755 128.089 123.755 127.894 123.951C127.698 123.951 127.502 124.146 127.306 124.342C127.11 124.537 127.11 124.733 126.914 124.928C126.914 125.124 126.718 125.319 126.718 125.515C126.718 125.906 126.914 126.297 127.11 126.688C127.502 127.079 127.894 127.079 128.285 127.079C128.481 127.079 128.677 127.079 128.873 126.883C129.069 126.883 129.265 126.688 129.46 126.492C129.656 126.297 129.656 126.101 129.852 125.906C129.852 125.71 130.048 125.515 130.048 125.319C130.048 125.124 130.048 124.928 129.852 124.733C129.852 124.537 129.656 124.342 129.46 124.146C129.265 123.951 129.069 123.951 128.873 123.755C128.873 123.755 128.677 123.755 128.481 123.755ZM134.161 121.018H135.924V131.184H134.161V121.018Z" fill="#7B4695"/>
<path d="M67.57 139.591V138.027H75.6V139.591H72.4664V140.177C72.4664 140.764 72.4664 141.35 72.6622 141.741C72.8581 142.132 73.0539 142.523 73.4456 142.719C73.8373 142.914 74.0332 143.11 74.6208 143.306C75.0125 143.501 75.6 143.501 75.9917 143.697V145.456C75.6 145.456 75.2083 145.456 74.8166 145.261C74.4249 145.065 74.0332 145.065 73.4456 144.87C73.0539 144.674 72.6622 144.479 72.2705 144.088C71.8788 143.697 71.6829 143.501 71.4871 143.11C71.2912 143.501 71.0954 143.892 70.7037 144.088C70.312 144.283 69.9202 144.674 69.5285 144.87C69.1368 145.065 68.5493 145.261 68.1575 145.261C67.7658 145.456 67.1783 145.456 66.9824 145.456V143.697C67.57 143.697 67.9617 143.501 68.3534 143.501C68.7451 143.306 69.1368 143.306 69.5285 142.914C69.9202 142.719 70.1161 142.328 70.312 141.937C70.5078 141.546 70.5078 140.959 70.5078 140.373V139.786H67.57V139.591ZM79.5171 149.171V150.735H69.3327C68.941 150.735 68.5493 150.539 68.3534 150.344C68.1576 150.148 67.9617 149.757 67.9617 149.171V146.238H69.7244V149.171H79.5171ZM79.1254 138.027V146.629H77.5586V138.027H79.1254Z" fill="#7B4695"/>
<path d="M80.4966 139.591V138.027H92.4438V139.591H87.5474V139.786C87.5474 140.177 87.7433 140.568 87.9391 140.959C88.3308 141.155 88.7225 141.546 89.1143 141.546C89.7018 141.741 90.0935 141.741 90.877 141.937C91.4645 141.937 92.0521 141.937 92.8355 141.937V143.501C92.6396 143.501 92.2479 143.501 91.8562 143.501C91.4645 143.501 91.0728 143.501 90.6811 143.501C90.2894 143.501 89.8977 143.306 89.506 143.306C89.1143 143.306 88.7225 143.11 88.3308 142.914C87.9391 142.719 87.7433 142.719 87.3516 142.523C86.9598 142.328 86.9598 142.132 86.764 141.937C86.764 142.132 86.5681 142.328 86.1764 142.523C85.9806 142.719 85.5889 142.914 85.1972 142.914C84.8054 143.11 84.4137 143.11 83.8262 143.306C83.4345 143.306 82.8469 143.501 82.4552 143.501C82.0635 143.501 81.6718 143.501 81.2801 143.501C80.8883 143.501 80.6925 143.501 80.3008 143.501V141.937C80.8883 141.937 81.6718 141.937 82.2593 141.937C82.8469 141.937 83.4345 141.741 84.022 141.546C84.6096 141.35 85.0013 141.155 85.1972 140.959C85.5889 140.764 85.5889 140.373 85.5889 139.786V139.591H80.4966ZM93.0314 144.283V145.652H87.5474V148.193H85.7847V145.652H80.3008V144.283H93.0314Z" fill="#7B4695"/>
<path d="M97.9277 145.651V144.087H103.216V142.328H99.4946C99.1029 142.328 98.907 142.132 98.5153 141.937C98.3194 141.741 98.1236 141.35 98.1236 140.764V137.636H99.8863V140.764H109.875V142.328H104.783V144.087H110.071V145.651H97.9277ZM109.875 149.171V150.735H99.8863C99.4946 150.735 99.1029 150.539 98.907 150.344C98.7112 150.148 98.5153 149.757 98.5153 149.171V146.629H100.278V149.171H109.875Z" fill="#7B4695"/>
<path d="M117.513 138.222V139.591C117.513 140.568 117.317 141.35 117.121 141.937C116.926 142.523 116.534 143.11 115.946 143.501C115.555 143.892 114.967 144.283 114.184 144.478C113.596 144.674 112.813 144.869 112.029 145.065L110.854 143.696C111.442 143.696 112.029 143.501 112.617 143.501C113.204 143.305 113.792 143.11 114.184 142.719C114.575 142.328 114.967 141.937 115.359 141.546C115.75 141.155 115.75 140.373 115.75 139.591V139.395H111.442V137.831H117.513V138.222ZM118.884 147.606V137.831H120.647V141.155H122.214V137.831H123.78V147.606H122.214V142.719H120.647V147.606H118.884Z" fill="#7B4695"/>
<path d="M124.759 139.591V138.027H131.419V139.591H129.068V139.786C129.068 140.373 129.068 140.959 129.264 141.35C129.46 141.741 129.46 142.132 129.656 142.328C129.852 142.523 130.243 142.719 130.439 142.914C130.831 143.11 131.223 143.11 131.81 143.306V145.065C131.419 145.065 131.027 145.065 130.635 144.87C130.243 144.674 129.852 144.674 129.656 144.479C129.264 144.283 129.068 144.088 128.677 143.697C128.481 143.501 128.285 143.11 128.089 142.719C127.893 143.11 127.697 143.501 127.501 143.697C127.306 143.892 126.914 144.283 126.522 144.479C126.13 144.674 125.739 144.87 125.347 144.87C124.955 145.065 124.564 145.065 124.172 145.065V143.306C124.759 143.306 125.151 143.11 125.543 142.914C125.935 142.719 126.13 142.523 126.326 142.328C126.522 142.132 126.718 141.741 126.718 141.35C126.914 140.959 126.914 140.373 126.914 139.591V139.395H124.759V139.591ZM130.831 140.568H132.789V138.027H134.356V147.802H132.789V142.132H130.831V140.568ZM135.531 138.027H137.098V147.802H135.336V138.027H135.531Z" fill="#7B4695"/>
</g>
<defs>
<clipPath id="clip0_273_63">
<rect width="189" height="174" fill="white"/>
</clipPath>
</defs>
</svg>
